<mxfile host="app.diagrams.net" modified="2023-01-04T11:50:22.027Z" agent="5.0 (Windows NT 10.0; Win64; x64) AppleWebKit/537.36 (KHTML, like Gecko) Chrome/108.0.0.0 Safari/537.36" version="20.8.0" etag="dULbGA4et_E_3MlDDF7-" type="github">
  <diagram id="ZjRvhlvalZvqxjyh2NCL" name="Page-1">
    <mxGraphModel dx="1900" dy="1583" grid="1" gridSize="10" guides="1" tooltips="1" connect="1" arrows="1" fold="1" page="1" pageScale="1" pageWidth="850" pageHeight="1100" math="0" shadow="0">
      <root>
        <mxCell id="0" />
        <mxCell id="1" parent="0" />
        <mxCell id="2Tt9mmZAJ2oOAFi1h-LQ-5" value="" style="line;strokeWidth=2;direction=south;html=1;" vertex="1" parent="1">
          <mxGeometry x="1470" y="-280" width="10" height="920" as="geometry" />
        </mxCell>
        <mxCell id="2Tt9mmZAJ2oOAFi1h-LQ-6" value="List Query API" style="sketch=0;outlineConnect=0;fontColor=#232F3E;gradientColor=none;strokeColor=#ffffff;fillColor=#232F3E;dashed=0;verticalLabelPosition=middle;verticalAlign=bottom;align=center;html=1;whiteSpace=wrap;fontSize=10;fontStyle=1;spacing=3;shape=mxgraph.aws4.productIcon;prIcon=mxgraph.aws4.api_gateway;" vertex="1" parent="1">
          <mxGeometry x="1300" y="530" width="80" height="110" as="geometry" />
        </mxCell>
        <mxCell id="2Tt9mmZAJ2oOAFi1h-LQ-7" value="Report API" style="sketch=0;outlineConnect=0;fontColor=#232F3E;gradientColor=none;strokeColor=#ffffff;fillColor=#232F3E;dashed=0;verticalLabelPosition=middle;verticalAlign=bottom;align=center;html=1;whiteSpace=wrap;fontSize=10;fontStyle=1;spacing=3;shape=mxgraph.aws4.productIcon;prIcon=mxgraph.aws4.api_gateway;" vertex="1" parent="1">
          <mxGeometry x="1300" y="370" width="80" height="110" as="geometry" />
        </mxCell>
        <mxCell id="2Tt9mmZAJ2oOAFi1h-LQ-8" value="Query API" style="sketch=0;outlineConnect=0;fontColor=#232F3E;gradientColor=none;strokeColor=#ffffff;fillColor=#232F3E;dashed=0;verticalLabelPosition=middle;verticalAlign=bottom;align=center;html=1;whiteSpace=wrap;fontSize=10;fontStyle=1;spacing=3;shape=mxgraph.aws4.productIcon;prIcon=mxgraph.aws4.api_gateway;" vertex="1" parent="1">
          <mxGeometry x="1300" y="210" width="80" height="110" as="geometry" />
        </mxCell>
        <mxCell id="2Tt9mmZAJ2oOAFi1h-LQ-9" value="DDL API" style="sketch=0;outlineConnect=0;fontColor=#232F3E;gradientColor=none;strokeColor=#ffffff;fillColor=#232F3E;dashed=0;verticalLabelPosition=middle;verticalAlign=bottom;align=center;html=1;whiteSpace=wrap;fontSize=10;fontStyle=1;spacing=3;shape=mxgraph.aws4.productIcon;prIcon=mxgraph.aws4.api_gateway;" vertex="1" parent="1">
          <mxGeometry x="1300" y="50" width="80" height="110" as="geometry" />
        </mxCell>
        <mxCell id="2Tt9mmZAJ2oOAFi1h-LQ-10" value="List Table API" style="sketch=0;outlineConnect=0;fontColor=#232F3E;gradientColor=none;strokeColor=#ffffff;fillColor=#232F3E;dashed=0;verticalLabelPosition=middle;verticalAlign=bottom;align=center;html=1;whiteSpace=wrap;fontSize=10;fontStyle=1;spacing=3;shape=mxgraph.aws4.productIcon;prIcon=mxgraph.aws4.api_gateway;" vertex="1" parent="1">
          <mxGeometry x="1300" y="-110" width="80" height="110" as="geometry" />
        </mxCell>
        <mxCell id="2Tt9mmZAJ2oOAFi1h-LQ-11" value="Create Table API" style="sketch=0;outlineConnect=0;fontColor=#232F3E;gradientColor=none;strokeColor=#ffffff;fillColor=#232F3E;dashed=0;verticalLabelPosition=middle;verticalAlign=bottom;align=center;html=1;whiteSpace=wrap;fontSize=10;fontStyle=1;spacing=3;shape=mxgraph.aws4.productIcon;prIcon=mxgraph.aws4.api_gateway;" vertex="1" parent="1">
          <mxGeometry x="1300" y="-270" width="80" height="110" as="geometry" />
        </mxCell>
        <mxCell id="2Tt9mmZAJ2oOAFi1h-LQ-14" value="" style="line;strokeWidth=2;direction=south;html=1;" vertex="1" parent="1">
          <mxGeometry x="1200" y="-280" width="10" height="920" as="geometry" />
        </mxCell>
        <mxCell id="2Tt9mmZAJ2oOAFi1h-LQ-17" value="" style="verticalLabelPosition=bottom;verticalAlign=top;html=1;shape=mxgraph.basic.patternFillRect;fillStyle=diag;step=5;fillStrokeWidth=0.2;fillStrokeColor=#dddddd;fontSize=16;dashed=1;dashPattern=8 8;" vertex="1" parent="1">
          <mxGeometry x="720" y="-320" width="400" height="360" as="geometry" />
        </mxCell>
        <mxCell id="2Tt9mmZAJ2oOAFi1h-LQ-27" style="edgeStyle=none;rounded=0;orthogonalLoop=1;jettySize=auto;html=1;exitX=0.5;exitY=0;exitDx=0;exitDy=0;exitPerimeter=0;entryX=0.5;entryY=1;entryDx=0;entryDy=0;entryPerimeter=0;fontSize=16;endArrow=blockThin;endFill=1;" edge="1" parent="1" source="2Tt9mmZAJ2oOAFi1h-LQ-19" target="2Tt9mmZAJ2oOAFi1h-LQ-20">
          <mxGeometry relative="1" as="geometry" />
        </mxCell>
        <mxCell id="2Tt9mmZAJ2oOAFi1h-LQ-19" value="" style="sketch=0;points=[[0,0,0],[0.25,0,0],[0.5,0,0],[0.75,0,0],[1,0,0],[0,1,0],[0.25,1,0],[0.5,1,0],[0.75,1,0],[1,1,0],[0,0.25,0],[0,0.5,0],[0,0.75,0],[1,0.25,0],[1,0.5,0],[1,0.75,0]];outlineConnect=0;fontColor=#232F3E;gradientColor=#FF4F8B;gradientDirection=north;fillColor=#BC1356;strokeColor=#ffffff;dashed=0;verticalLabelPosition=bottom;verticalAlign=top;align=center;html=1;fontSize=12;fontStyle=0;aspect=fixed;shape=mxgraph.aws4.resourceIcon;resIcon=mxgraph.aws4.eventbridge;dashPattern=8 8;" vertex="1" parent="1">
          <mxGeometry x="810" y="-90" width="78" height="78" as="geometry" />
        </mxCell>
        <mxCell id="2Tt9mmZAJ2oOAFi1h-LQ-40" style="edgeStyle=none;rounded=0;orthogonalLoop=1;jettySize=auto;html=1;entryX=0.757;entryY=0.355;entryDx=0;entryDy=0;entryPerimeter=0;fontFamily=Courier New;fontSize=12;endArrow=blockThin;endFill=1;" edge="1" parent="1" source="2Tt9mmZAJ2oOAFi1h-LQ-20" target="2Tt9mmZAJ2oOAFi1h-LQ-17">
          <mxGeometry relative="1" as="geometry" />
        </mxCell>
        <mxCell id="2Tt9mmZAJ2oOAFi1h-LQ-20" value="" style="sketch=0;points=[[0,0,0],[0.25,0,0],[0.5,0,0],[0.75,0,0],[1,0,0],[0,1,0],[0.25,1,0],[0.5,1,0],[0.75,1,0],[1,1,0],[0,0.25,0],[0,0.5,0],[0,0.75,0],[1,0.25,0],[1,0.5,0],[1,0.75,0]];outlineConnect=0;fontColor=#232F3E;gradientColor=#F78E04;gradientDirection=north;fillColor=#D05C17;strokeColor=#ffffff;dashed=0;verticalLabelPosition=bottom;verticalAlign=top;align=center;html=1;fontSize=12;fontStyle=0;aspect=fixed;shape=mxgraph.aws4.resourceIcon;resIcon=mxgraph.aws4.lambda;dashPattern=8 8;" vertex="1" parent="1">
          <mxGeometry x="810" y="-230" width="78" height="78" as="geometry" />
        </mxCell>
        <mxCell id="2Tt9mmZAJ2oOAFi1h-LQ-25" value="" style="outlineConnect=0;dashed=0;verticalLabelPosition=bottom;verticalAlign=top;align=center;html=1;shape=mxgraph.aws3.s3;fillColor=#E05243;gradientColor=none;dashPattern=8 8;fontSize=16;" vertex="1" parent="1">
          <mxGeometry x="1020" y="-230" width="76.5" height="80" as="geometry" />
        </mxCell>
        <mxCell id="2Tt9mmZAJ2oOAFi1h-LQ-36" value="&lt;h3&gt;&lt;b&gt;&lt;font face=&quot;Courier New&quot;&gt;Data Lake&lt;/font&gt;&lt;/b&gt;&lt;/h3&gt;" style="text;html=1;align=center;verticalAlign=middle;resizable=0;points=[];autosize=1;strokeColor=none;fillColor=none;fontSize=16;" vertex="1" parent="1">
          <mxGeometry x="870" y="-340" width="120" height="70" as="geometry" />
        </mxCell>
        <mxCell id="2Tt9mmZAJ2oOAFi1h-LQ-39" value="&lt;font style=&quot;font-size: 12px;&quot;&gt;&lt;b&gt;Dada Lake Event&lt;/b&gt;&lt;/font&gt;" style="text;html=1;align=center;verticalAlign=middle;resizable=0;points=[];autosize=1;strokeColor=none;fillColor=none;fontSize=16;fontFamily=Courier New;" vertex="1" parent="1">
          <mxGeometry x="784" y="-12" width="130" height="30" as="geometry" />
        </mxCell>
        <mxCell id="2Tt9mmZAJ2oOAFi1h-LQ-41" value="&lt;b&gt;Unload Lambda Function&lt;/b&gt;" style="text;html=1;align=center;verticalAlign=middle;resizable=0;points=[];autosize=1;strokeColor=none;fillColor=none;fontSize=12;fontFamily=Courier New;" vertex="1" parent="1">
          <mxGeometry x="760" y="-260" width="180" height="30" as="geometry" />
        </mxCell>
        <mxCell id="2Tt9mmZAJ2oOAFi1h-LQ-42" value="&lt;b&gt;Analytical S3 Bucket&lt;/b&gt;" style="text;html=1;align=center;verticalAlign=middle;resizable=0;points=[];autosize=1;strokeColor=none;fillColor=none;fontSize=12;fontFamily=Courier New;" vertex="1" parent="1">
          <mxGeometry x="960" y="-260" width="170" height="30" as="geometry" />
        </mxCell>
        <mxCell id="2Tt9mmZAJ2oOAFi1h-LQ-47" value="" style="verticalLabelPosition=bottom;verticalAlign=top;html=1;shape=mxgraph.basic.patternFillRect;fillStyle=vert;step=5;fillStrokeWidth=0.2;fillStrokeColor=#dddddd;dashed=1;dashPattern=8 8;fontFamily=Courier New;fontSize=12;" vertex="1" parent="1">
          <mxGeometry x="720" y="80" width="400" height="200" as="geometry" />
        </mxCell>
        <mxCell id="2Tt9mmZAJ2oOAFi1h-LQ-58" style="edgeStyle=none;rounded=0;orthogonalLoop=1;jettySize=auto;html=1;exitX=0;exitY=0.5;exitDx=0;exitDy=0;exitPerimeter=0;entryX=0.413;entryY=0.451;entryDx=0;entryDy=0;entryPerimeter=0;fontFamily=Courier New;fontSize=12;endArrow=blockThin;endFill=1;" edge="1" parent="1" source="2Tt9mmZAJ2oOAFi1h-LQ-48" target="2Tt9mmZAJ2oOAFi1h-LQ-47">
          <mxGeometry relative="1" as="geometry" />
        </mxCell>
        <mxCell id="2Tt9mmZAJ2oOAFi1h-LQ-48" value="" style="sketch=0;points=[[0,0,0],[0.25,0,0],[0.5,0,0],[0.75,0,0],[1,0,0],[0,1,0],[0.25,1,0],[0.5,1,0],[0.75,1,0],[1,1,0],[0,0.25,0],[0,0.5,0],[0,0.75,0],[1,0.25,0],[1,0.5,0],[1,0.75,0]];outlineConnect=0;fontColor=#232F3E;gradientColor=#FF4F8B;gradientDirection=north;fillColor=#BC1356;strokeColor=#ffffff;dashed=0;verticalLabelPosition=bottom;verticalAlign=top;align=center;html=1;fontSize=12;fontStyle=0;aspect=fixed;shape=mxgraph.aws4.resourceIcon;resIcon=mxgraph.aws4.eventbridge;dashPattern=8 8;" vertex="1" parent="1">
          <mxGeometry x="1006" y="132" width="78" height="78" as="geometry" />
        </mxCell>
        <mxCell id="2Tt9mmZAJ2oOAFi1h-LQ-64" style="edgeStyle=none;rounded=0;orthogonalLoop=1;jettySize=auto;html=1;exitX=0.5;exitY=1;exitDx=0;exitDy=0;exitPerimeter=0;entryX=0.5;entryY=0;entryDx=0;entryDy=0;entryPerimeter=0;fontFamily=Courier New;fontSize=12;endArrow=blockThin;endFill=1;shape=link;" edge="1" parent="1" source="2Tt9mmZAJ2oOAFi1h-LQ-49" target="2Tt9mmZAJ2oOAFi1h-LQ-62">
          <mxGeometry relative="1" as="geometry" />
        </mxCell>
        <mxCell id="2Tt9mmZAJ2oOAFi1h-LQ-71" style="edgeStyle=none;rounded=0;orthogonalLoop=1;jettySize=auto;html=1;exitX=0;exitY=0.75;exitDx=0;exitDy=0;exitPerimeter=0;entryX=0.5;entryY=0;entryDx=0;entryDy=0;entryPerimeter=0;fontFamily=Courier New;fontSize=12;endArrow=blockThin;endFill=1;shape=link;" edge="1" parent="1" source="2Tt9mmZAJ2oOAFi1h-LQ-49" target="2Tt9mmZAJ2oOAFi1h-LQ-59">
          <mxGeometry relative="1" as="geometry">
            <Array as="points">
              <mxPoint x="600" y="190" />
            </Array>
          </mxGeometry>
        </mxCell>
        <mxCell id="2Tt9mmZAJ2oOAFi1h-LQ-49" value="" style="sketch=0;points=[[0,0,0],[0.25,0,0],[0.5,0,0],[0.75,0,0],[1,0,0],[0,1,0],[0.25,1,0],[0.5,1,0],[0.75,1,0],[1,1,0],[0,0.25,0],[0,0.5,0],[0,0.75,0],[1,0.25,0],[1,0.5,0],[1,0.75,0]];outlineConnect=0;fontColor=#232F3E;gradientColor=#F78E04;gradientDirection=north;fillColor=#D05C17;strokeColor=#ffffff;dashed=0;verticalLabelPosition=bottom;verticalAlign=top;align=center;html=1;fontSize=12;fontStyle=0;aspect=fixed;shape=mxgraph.aws4.resourceIcon;resIcon=mxgraph.aws4.lambda;dashPattern=8 8;" vertex="1" parent="1">
          <mxGeometry x="811" y="132" width="78" height="78" as="geometry" />
        </mxCell>
        <mxCell id="2Tt9mmZAJ2oOAFi1h-LQ-50" value="" style="verticalLabelPosition=bottom;verticalAlign=top;html=1;shape=mxgraph.basic.patternFillRect;fillStyle=vert;step=5;fillStrokeWidth=0.2;fillStrokeColor=#dddddd;dashed=1;dashPattern=8 8;fontFamily=Courier New;fontSize=12;" vertex="1" parent="1">
          <mxGeometry x="720" y="360" width="400" height="200" as="geometry" />
        </mxCell>
        <mxCell id="2Tt9mmZAJ2oOAFi1h-LQ-68" style="edgeStyle=none;rounded=0;orthogonalLoop=1;jettySize=auto;html=1;exitX=0;exitY=0.5;exitDx=0;exitDy=0;exitPerimeter=0;entryX=0.425;entryY=0.591;entryDx=0;entryDy=0;entryPerimeter=0;fontFamily=Courier New;fontSize=12;endArrow=blockThin;endFill=1;" edge="1" parent="1" source="2Tt9mmZAJ2oOAFi1h-LQ-51" target="2Tt9mmZAJ2oOAFi1h-LQ-50">
          <mxGeometry relative="1" as="geometry" />
        </mxCell>
        <mxCell id="2Tt9mmZAJ2oOAFi1h-LQ-51" value="" style="sketch=0;points=[[0,0,0],[0.25,0,0],[0.5,0,0],[0.75,0,0],[1,0,0],[0,1,0],[0.25,1,0],[0.5,1,0],[0.75,1,0],[1,1,0],[0,0.25,0],[0,0.5,0],[0,0.75,0],[1,0.25,0],[1,0.5,0],[1,0.75,0]];outlineConnect=0;fontColor=#232F3E;gradientColor=#FF4F8B;gradientDirection=north;fillColor=#BC1356;strokeColor=#ffffff;dashed=0;verticalLabelPosition=bottom;verticalAlign=top;align=center;html=1;fontSize=12;fontStyle=0;aspect=fixed;shape=mxgraph.aws4.resourceIcon;resIcon=mxgraph.aws4.eventbridge;dashPattern=8 8;" vertex="1" parent="1">
          <mxGeometry x="1006" y="440" width="78" height="78" as="geometry" />
        </mxCell>
        <mxCell id="2Tt9mmZAJ2oOAFi1h-LQ-65" style="edgeStyle=none;rounded=0;orthogonalLoop=1;jettySize=auto;html=1;exitX=0.5;exitY=0;exitDx=0;exitDy=0;exitPerimeter=0;entryX=0.323;entryY=-0.021;entryDx=0;entryDy=0;entryPerimeter=0;fontFamily=Courier New;fontSize=12;endArrow=blockThin;endFill=1;shape=link;" edge="1" parent="1" source="2Tt9mmZAJ2oOAFi1h-LQ-52" target="2Tt9mmZAJ2oOAFi1h-LQ-50">
          <mxGeometry relative="1" as="geometry" />
        </mxCell>
        <mxCell id="2Tt9mmZAJ2oOAFi1h-LQ-72" style="edgeStyle=none;rounded=0;orthogonalLoop=1;jettySize=auto;html=1;exitX=0;exitY=0.25;exitDx=0;exitDy=0;exitPerimeter=0;entryX=0.5;entryY=1;entryDx=0;entryDy=0;entryPerimeter=0;fontFamily=Courier New;fontSize=12;endArrow=blockThin;endFill=1;shape=link;" edge="1" parent="1" source="2Tt9mmZAJ2oOAFi1h-LQ-52" target="2Tt9mmZAJ2oOAFi1h-LQ-59">
          <mxGeometry relative="1" as="geometry">
            <Array as="points">
              <mxPoint x="600" y="460" />
            </Array>
          </mxGeometry>
        </mxCell>
        <mxCell id="2Tt9mmZAJ2oOAFi1h-LQ-52" value="" style="sketch=0;points=[[0,0,0],[0.25,0,0],[0.5,0,0],[0.75,0,0],[1,0,0],[0,1,0],[0.25,1,0],[0.5,1,0],[0.75,1,0],[1,1,0],[0,0.25,0],[0,0.5,0],[0,0.75,0],[1,0.25,0],[1,0.5,0],[1,0.75,0]];outlineConnect=0;fontColor=#232F3E;gradientColor=#F78E04;gradientDirection=north;fillColor=#D05C17;strokeColor=#ffffff;dashed=0;verticalLabelPosition=bottom;verticalAlign=top;align=center;html=1;fontSize=12;fontStyle=0;aspect=fixed;shape=mxgraph.aws4.resourceIcon;resIcon=mxgraph.aws4.lambda;dashPattern=8 8;" vertex="1" parent="1">
          <mxGeometry x="811" y="440" width="78" height="78" as="geometry" />
        </mxCell>
        <mxCell id="2Tt9mmZAJ2oOAFi1h-LQ-54" value="&lt;font style=&quot;font-size: 12px;&quot;&gt;&lt;b&gt;Daily Event&lt;/b&gt;&lt;/font&gt;" style="text;html=1;align=center;verticalAlign=middle;resizable=0;points=[];autosize=1;strokeColor=none;fillColor=none;fontSize=16;fontFamily=Courier New;" vertex="1" parent="1">
          <mxGeometry x="995" y="102" width="100" height="30" as="geometry" />
        </mxCell>
        <mxCell id="2Tt9mmZAJ2oOAFi1h-LQ-55" value="&lt;font style=&quot;font-size: 12px;&quot;&gt;&lt;b&gt;Daily Cron&lt;/b&gt;&lt;/font&gt;" style="text;html=1;align=center;verticalAlign=middle;resizable=0;points=[];autosize=1;strokeColor=none;fillColor=none;fontSize=16;fontFamily=Courier New;" vertex="1" parent="1">
          <mxGeometry x="799" y="102" width="100" height="30" as="geometry" />
        </mxCell>
        <mxCell id="2Tt9mmZAJ2oOAFi1h-LQ-56" value="&lt;font style=&quot;&quot;&gt;&lt;span style=&quot;font-size: 12px;&quot;&gt;&lt;b&gt;Monthly&lt;/b&gt;&lt;/span&gt;&lt;b style=&quot;font-size: 12px;&quot;&gt;&amp;nbsp;Cron&lt;/b&gt;&lt;/font&gt;" style="text;html=1;align=center;verticalAlign=middle;resizable=0;points=[];autosize=1;strokeColor=none;fillColor=none;fontSize=16;fontFamily=Courier New;" vertex="1" parent="1">
          <mxGeometry x="795" y="518" width="110" height="30" as="geometry" />
        </mxCell>
        <mxCell id="2Tt9mmZAJ2oOAFi1h-LQ-57" value="&lt;font style=&quot;font-size: 12px;&quot;&gt;&lt;b&gt;Monthly Event&lt;/b&gt;&lt;/font&gt;" style="text;html=1;align=center;verticalAlign=middle;resizable=0;points=[];autosize=1;strokeColor=none;fillColor=none;fontSize=16;fontFamily=Courier New;" vertex="1" parent="1">
          <mxGeometry x="985" y="518" width="120" height="30" as="geometry" />
        </mxCell>
        <mxCell id="2Tt9mmZAJ2oOAFi1h-LQ-59" value="" style="sketch=0;points=[[0,0,0],[0.25,0,0],[0.5,0,0],[0.75,0,0],[1,0,0],[0,1,0],[0.25,1,0],[0.5,1,0],[0.75,1,0],[1,1,0],[0,0.25,0],[0,0.5,0],[0,0.75,0],[1,0.25,0],[1,0.5,0],[1,0.75,0]];outlineConnect=0;fontColor=#232F3E;gradientColor=#4D72F3;gradientDirection=north;fillColor=#3334B9;strokeColor=#ffffff;dashed=0;verticalLabelPosition=bottom;verticalAlign=top;align=center;html=1;fontSize=12;fontStyle=0;aspect=fixed;shape=mxgraph.aws4.resourceIcon;resIcon=mxgraph.aws4.documentdb_with_mongodb_compatibility;dashPattern=8 8;fontFamily=Courier New;" vertex="1" parent="1">
          <mxGeometry x="520" y="240" width="160" height="160" as="geometry" />
        </mxCell>
        <mxCell id="2Tt9mmZAJ2oOAFi1h-LQ-62" value="" style="sketch=0;points=[[0,0,0],[0.25,0,0],[0.5,0,0],[0.75,0,0],[1,0,0],[0,1,0],[0.25,1,0],[0.5,1,0],[0.75,1,0],[1,1,0],[0,0.25,0],[0,0.5,0],[0,0.75,0],[1,0.25,0],[1,0.5,0],[1,0.75,0]];outlineConnect=0;fontColor=#232F3E;gradientColor=#945DF2;gradientDirection=north;fillColor=#5A30B5;strokeColor=#ffffff;dashed=0;verticalLabelPosition=bottom;verticalAlign=top;align=center;html=1;fontSize=12;fontStyle=0;aspect=fixed;shape=mxgraph.aws4.resourceIcon;resIcon=mxgraph.aws4.athena;dashPattern=8 8;fontFamily=Courier New;" vertex="1" parent="1">
          <mxGeometry x="810" y="282" width="78" height="78" as="geometry" />
        </mxCell>
        <mxCell id="2Tt9mmZAJ2oOAFi1h-LQ-66" value="&lt;font style=&quot;font-size: 12px;&quot;&gt;&lt;b&gt;Fetch Data&lt;/b&gt;&lt;/font&gt;" style="text;html=1;align=center;verticalAlign=middle;resizable=0;points=[];autosize=1;strokeColor=none;fillColor=none;fontSize=16;fontFamily=Courier New;" vertex="1" parent="1">
          <mxGeometry x="850" y="380" width="100" height="30" as="geometry" />
        </mxCell>
        <mxCell id="2Tt9mmZAJ2oOAFi1h-LQ-67" value="&lt;font style=&quot;font-size: 12px;&quot;&gt;&lt;b&gt;Return Data&amp;nbsp;&lt;/b&gt;&lt;/font&gt;" style="text;html=1;align=center;verticalAlign=middle;resizable=0;points=[];autosize=1;strokeColor=none;fillColor=none;fontSize=16;fontFamily=Courier New;" vertex="1" parent="1">
          <mxGeometry x="740" y="380" width="110" height="30" as="geometry" />
        </mxCell>
        <mxCell id="2Tt9mmZAJ2oOAFi1h-LQ-69" value="&lt;font style=&quot;font-size: 12px;&quot;&gt;&lt;b&gt;Fetch Data&lt;/b&gt;&lt;/font&gt;" style="text;html=1;align=center;verticalAlign=middle;resizable=0;points=[];autosize=1;strokeColor=none;fillColor=none;fontSize=16;fontFamily=Courier New;" vertex="1" parent="1">
          <mxGeometry x="850" y="230" width="100" height="30" as="geometry" />
        </mxCell>
        <mxCell id="2Tt9mmZAJ2oOAFi1h-LQ-70" value="&lt;font style=&quot;font-size: 12px;&quot;&gt;&lt;b&gt;Return Data&amp;nbsp;&lt;/b&gt;&lt;/font&gt;" style="text;html=1;align=center;verticalAlign=middle;resizable=0;points=[];autosize=1;strokeColor=none;fillColor=none;fontSize=16;fontFamily=Courier New;" vertex="1" parent="1">
          <mxGeometry x="740" y="230" width="110" height="30" as="geometry" />
        </mxCell>
        <mxCell id="2Tt9mmZAJ2oOAFi1h-LQ-73" value="&lt;font style=&quot;font-size: 12px;&quot;&gt;&lt;b&gt;Return Data&amp;nbsp;&lt;/b&gt;&lt;/font&gt;" style="text;html=1;align=center;verticalAlign=middle;resizable=0;points=[];autosize=1;strokeColor=none;fillColor=none;fontSize=16;fontFamily=Courier New;" vertex="1" parent="1">
          <mxGeometry x="480" y="410" width="110" height="30" as="geometry" />
        </mxCell>
        <mxCell id="2Tt9mmZAJ2oOAFi1h-LQ-74" value="&lt;font style=&quot;font-size: 12px;&quot;&gt;&lt;b&gt;Return Data&amp;nbsp;&lt;/b&gt;&lt;/font&gt;" style="text;html=1;align=center;verticalAlign=middle;resizable=0;points=[];autosize=1;strokeColor=none;fillColor=none;fontSize=16;fontFamily=Courier New;" vertex="1" parent="1">
          <mxGeometry x="470" y="200" width="110" height="30" as="geometry" />
        </mxCell>
        <mxCell id="2Tt9mmZAJ2oOAFi1h-LQ-75" value="&lt;font style=&quot;font-size: 12px;&quot;&gt;&lt;b&gt;Fetch Data&lt;/b&gt;&lt;/font&gt;" style="text;html=1;align=center;verticalAlign=middle;resizable=0;points=[];autosize=1;strokeColor=none;fillColor=none;fontSize=16;fontFamily=Courier New;" vertex="1" parent="1">
          <mxGeometry x="610" y="200" width="100" height="30" as="geometry" />
        </mxCell>
        <mxCell id="2Tt9mmZAJ2oOAFi1h-LQ-76" value="&lt;font style=&quot;font-size: 12px;&quot;&gt;&lt;b&gt;Fetch Data&lt;/b&gt;&lt;/font&gt;" style="text;html=1;align=center;verticalAlign=middle;resizable=0;points=[];autosize=1;strokeColor=none;fillColor=none;fontSize=16;fontFamily=Courier New;" vertex="1" parent="1">
          <mxGeometry x="620" y="410" width="100" height="30" as="geometry" />
        </mxCell>
        <mxCell id="2Tt9mmZAJ2oOAFi1h-LQ-77" value="" style="endArrow=classic;startArrow=classic;html=1;rounded=0;fontFamily=Courier New;fontSize=12;shape=link;exitX=0.5;exitY=0;exitDx=0;exitDy=0;exitPerimeter=0;entryX=0.221;entryY=0.555;entryDx=0;entryDy=0;entryPerimeter=0;" edge="1" parent="1" source="2Tt9mmZAJ2oOAFi1h-LQ-59" target="2Tt9mmZAJ2oOAFi1h-LQ-47">
          <mxGeometry width="50" height="50" relative="1" as="geometry">
            <mxPoint x="980" y="320" as="sourcePoint" />
            <mxPoint x="1030" y="270" as="targetPoint" />
            <Array as="points">
              <mxPoint x="600" y="190" />
            </Array>
          </mxGeometry>
        </mxCell>
        <mxCell id="2Tt9mmZAJ2oOAFi1h-LQ-78" value="Athena" style="text;html=1;align=center;verticalAlign=middle;resizable=0;points=[];autosize=1;strokeColor=none;fillColor=none;fontSize=12;fontFamily=Courier New;" vertex="1" parent="1">
          <mxGeometry x="890" y="306" width="70" height="30" as="geometry" />
        </mxCell>
        <mxCell id="2Tt9mmZAJ2oOAFi1h-LQ-86" style="edgeStyle=none;rounded=0;orthogonalLoop=1;jettySize=auto;html=1;entryX=0.225;entryY=0.351;entryDx=0;entryDy=0;entryPerimeter=0;fontFamily=Courier New;fontSize=14;endArrow=blockThin;endFill=1;shape=link;" edge="1" parent="1" source="2Tt9mmZAJ2oOAFi1h-LQ-83" target="2Tt9mmZAJ2oOAFi1h-LQ-17">
          <mxGeometry relative="1" as="geometry">
            <Array as="points">
              <mxPoint x="455" y="-190" />
            </Array>
          </mxGeometry>
        </mxCell>
        <mxCell id="2Tt9mmZAJ2oOAFi1h-LQ-83" value="" style="sketch=0;html=1;verticalAlign=top;labelPosition=center;verticalLabelPosition=bottom;align=center;spacingTop=-6;fontSize=11;fontStyle=1;fontColor=#999999;shape=image;aspect=fixed;imageAspect=0;image=data:image/svg+xml,PHN2ZyB4bWxucz0iaHR0cDovL3d3dy53My5vcmcvMjAwMC9zdmciIHhtbG5zOnY9Imh0dHBzOi8vdmVjdGEuaW8vbmFubyIgd2lkdGg9IjIwLjAwMTA0NTIyNzA1MDc4IiBoZWlnaHQ9IjIwLjAwMTA0NTIyNzA1MDc4IiBmaWxsLXJ1bGU9ImV2ZW5vZGQiIHZpZXdCb3g9IjAgMCAyMC4wMDEwNDUyMjcwNTA3OCAyMC4wMDEwNDUyMjcwNTA3OCI+JiN4YTsJPHN0eWxlIHR5cGU9InRleHQvY3NzIj4mI3hhOwkuc3Qwe2ZpbGw6I2FlY2JmYTt9JiN4YTsJLnN0MXtmaWxsOiM2NjlkZjY7fSYjeGE7CS5zdDJ7ZmlsbDojNDI4NWY0O30mI3hhOwk8L3N0eWxlPiYjeGE7CTxwYXRoIGNsYXNzPSJzdDAiIGQ9Ik00LjczIDguODN2Mi42M2E0LjkxIDQuOTEgMCAwIDAgMS43MSAxLjc0VjguODN6Ii8+JiN4YTsJPHBhdGggY2xhc3M9InN0MSIgZD0iTTcuODkgNi40MXY3LjUzQTcuNjIgNy42MiAwIDAgMCA5IDE0YTggOCAwIDAgMCAxIDBWNi40MXoiLz4mI3hhOwk8cGF0aCBjbGFzcz0ic3QwIiBkPSJNMTEuNjQgOS44NnYzLjI5YTUgNSAwIDAgMCAxLjctMS44MlY5Ljg2eiIvPiYjeGE7CTxwYXRoIGNsYXNzPSJzdDIiIGQ9Ik0xNS43NCAxNC4zMmwtMS40MiAxLjQyYS40Mi40MiAwIDAgMCAwIC42bDMuNTQgMy41NGEuNDIuNDIgMCAwIDAgLjU5IDBsMS40My0xLjQzYS40Mi40MiAwIDAgMCAwLS41OWwtMy41NC0zLjU0YS40Mi40MiAwIDAgMC0uNiAwIi8+JiN4YTsJPHBhdGggY2xhc3M9InN0MSIgZD0iTTkgMGE5IDkgMCAxIDAgMCAxOEE5IDkgMCAxIDAgOSAwbTAgMTUuNjlhNi42OCA2LjY4IDAgMCAxIC4wMDctMTMuMzYgNi42OCA2LjY4IDAgMCAxIDQuNzI3IDExLjQwM0E2LjY4IDYuNjggMCAwIDEgOSAxNS42OSIvPiYjeGE7PC9zdmc+;dashed=1;dashPattern=8 8;fontFamily=Courier New;" vertex="1" parent="1">
          <mxGeometry x="387.5" y="-32.5" width="135" height="135" as="geometry" />
        </mxCell>
        <mxCell id="2Tt9mmZAJ2oOAFi1h-LQ-85" style="edgeStyle=none;rounded=0;orthogonalLoop=1;jettySize=auto;html=1;entryX=0;entryY=0.5;entryDx=0;entryDy=0;fontFamily=Courier New;fontSize=14;endArrow=blockThin;endFill=1;" edge="1" parent="1" source="2Tt9mmZAJ2oOAFi1h-LQ-84" target="2Tt9mmZAJ2oOAFi1h-LQ-83">
          <mxGeometry relative="1" as="geometry" />
        </mxCell>
        <mxCell id="2Tt9mmZAJ2oOAFi1h-LQ-84" value="&lt;span style=&quot;font-size: 14px;&quot;&gt;Event API&lt;/span&gt;" style="sketch=0;outlineConnect=0;fontColor=#232F3E;gradientColor=none;strokeColor=#ffffff;fillColor=#232F3E;dashed=0;verticalLabelPosition=middle;verticalAlign=bottom;align=center;html=1;whiteSpace=wrap;fontSize=10;fontStyle=1;spacing=3;shape=mxgraph.aws4.productIcon;prIcon=mxgraph.aws4.api_gateway;dashPattern=8 8;fontFamily=Courier New;" vertex="1" parent="1">
          <mxGeometry x="120" y="-40" width="120" height="150" as="geometry" />
        </mxCell>
        <mxCell id="2Tt9mmZAJ2oOAFi1h-LQ-90" style="edgeStyle=none;rounded=0;orthogonalLoop=1;jettySize=auto;html=1;fontFamily=Courier New;fontSize=14;endArrow=blockThin;endFill=1;" edge="1" parent="1" source="2Tt9mmZAJ2oOAFi1h-LQ-87" target="2Tt9mmZAJ2oOAFi1h-LQ-84">
          <mxGeometry relative="1" as="geometry" />
        </mxCell>
        <mxCell id="2Tt9mmZAJ2oOAFi1h-LQ-87" value="" style="aspect=fixed;perimeter=ellipsePerimeter;html=1;align=center;shadow=0;dashed=0;spacingTop=3;image;image=img/lib/active_directory/users.svg;dashPattern=8 8;fontFamily=Courier New;fontSize=14;" vertex="1" parent="1">
          <mxGeometry x="-120" y="-32.65" width="87.55" height="132.65" as="geometry" />
        </mxCell>
        <mxCell id="2Tt9mmZAJ2oOAFi1h-LQ-94" style="edgeStyle=none;rounded=0;orthogonalLoop=1;jettySize=auto;html=1;fontFamily=Courier New;fontSize=14;endArrow=blockThin;endFill=1;" edge="1" parent="1" source="2Tt9mmZAJ2oOAFi1h-LQ-91">
          <mxGeometry relative="1" as="geometry">
            <mxPoint x="120" y="-40" as="targetPoint" />
            <Array as="points">
              <mxPoint x="120" y="-174" />
              <mxPoint x="120" y="-110" />
            </Array>
          </mxGeometry>
        </mxCell>
        <mxCell id="2Tt9mmZAJ2oOAFi1h-LQ-91" value="" style="verticalLabelPosition=bottom;sketch=0;aspect=fixed;html=1;verticalAlign=top;strokeColor=none;align=center;outlineConnect=0;shape=mxgraph.citrix.users;dashed=1;dashPattern=8 8;fontFamily=Courier New;fontSize=14;" vertex="1" parent="1">
          <mxGeometry x="-128.12" y="-218.5" width="103.79" height="88.5" as="geometry" />
        </mxCell>
        <mxCell id="2Tt9mmZAJ2oOAFi1h-LQ-93" style="edgeStyle=none;rounded=0;orthogonalLoop=1;jettySize=auto;html=1;fontFamily=Courier New;fontSize=14;endArrow=blockThin;endFill=1;" edge="1" parent="1" source="2Tt9mmZAJ2oOAFi1h-LQ-92" target="2Tt9mmZAJ2oOAFi1h-LQ-84">
          <mxGeometry relative="1" as="geometry">
            <Array as="points">
              <mxPoint x="120" y="252" />
              <mxPoint x="120" y="90" />
            </Array>
          </mxGeometry>
        </mxCell>
        <mxCell id="2Tt9mmZAJ2oOAFi1h-LQ-92" value="&lt;b style=&quot;border-color: var(--border-color); color: rgb(84, 91, 100); font-size: 12px;&quot;&gt;&lt;font style=&quot;border-color: var(--border-color); font-size: 18px;&quot;&gt;Users&lt;/font&gt;&lt;/b&gt;" style="outlineConnect=0;dashed=0;verticalLabelPosition=bottom;verticalAlign=top;align=center;html=1;shape=mxgraph.aws3.users;fillColor=#D2D3D3;gradientColor=none;dashPattern=8 8;fontFamily=Courier New;fontSize=14;" vertex="1" parent="1">
          <mxGeometry x="-120" y="200" width="86.78" height="103" as="geometry" />
        </mxCell>
        <mxCell id="2Tt9mmZAJ2oOAFi1h-LQ-96" style="edgeStyle=none;rounded=0;orthogonalLoop=1;jettySize=auto;html=1;fontFamily=Courier New;fontSize=14;endArrow=blockThin;endFill=1;" edge="1" parent="1" source="2Tt9mmZAJ2oOAFi1h-LQ-95" target="2Tt9mmZAJ2oOAFi1h-LQ-84">
          <mxGeometry relative="1" as="geometry">
            <mxPoint x="40" y="-70" as="targetPoint" />
            <Array as="points">
              <mxPoint y="-70" />
              <mxPoint />
              <mxPoint x="120" />
            </Array>
          </mxGeometry>
        </mxCell>
        <mxCell id="2Tt9mmZAJ2oOAFi1h-LQ-95" value="&lt;b&gt;&lt;font style=&quot;font-size: 18px;&quot;&gt;Users&lt;/font&gt;&lt;/b&gt;" style="sketch=0;outlineConnect=0;gradientColor=none;fontColor=#545B64;strokeColor=none;fillColor=#879196;dashed=0;verticalLabelPosition=bottom;verticalAlign=top;align=center;html=1;fontSize=12;fontStyle=0;aspect=fixed;shape=mxgraph.aws4.illustration_users;pointerEvents=1;dashPattern=8 8;fontFamily=Courier New;" vertex="1" parent="1">
          <mxGeometry x="-400" y="-120" width="100" height="100" as="geometry" />
        </mxCell>
        <mxCell id="2Tt9mmZAJ2oOAFi1h-LQ-98" style="edgeStyle=none;rounded=0;orthogonalLoop=1;jettySize=auto;html=1;fontFamily=Courier New;fontSize=14;endArrow=blockThin;endFill=1;" edge="1" parent="1" source="2Tt9mmZAJ2oOAFi1h-LQ-97" target="2Tt9mmZAJ2oOAFi1h-LQ-84">
          <mxGeometry relative="1" as="geometry">
            <Array as="points">
              <mxPoint y="125" />
              <mxPoint y="60" />
              <mxPoint x="120" y="60" />
              <mxPoint x="130" y="70" />
            </Array>
          </mxGeometry>
        </mxCell>
        <mxCell id="2Tt9mmZAJ2oOAFi1h-LQ-97" value="&lt;b style=&quot;border-color: var(--border-color); color: rgb(84, 91, 100);&quot;&gt;&lt;font style=&quot;border-color: var(--border-color); font-size: 18px;&quot;&gt;Users&lt;/font&gt;&lt;/b&gt;" style="sketch=0;outlineConnect=0;fontColor=#232F3E;gradientColor=none;strokeColor=#232F3E;fillColor=#ffffff;dashed=0;verticalLabelPosition=bottom;verticalAlign=top;align=center;html=1;fontSize=12;fontStyle=0;aspect=fixed;shape=mxgraph.aws4.resourceIcon;resIcon=mxgraph.aws4.users;dashPattern=8 8;fontFamily=Courier New;" vertex="1" parent="1">
          <mxGeometry x="-395" y="80" width="90" height="90" as="geometry" />
        </mxCell>
        <mxCell id="2Tt9mmZAJ2oOAFi1h-LQ-101" value="&lt;b style=&quot;border-color: var(--border-color); color: rgb(84, 91, 100); font-size: 12px;&quot;&gt;&lt;font style=&quot;border-color: var(--border-color); font-size: 18px;&quot;&gt;Users&lt;/font&gt;&lt;/b&gt;" style="text;html=1;align=center;verticalAlign=middle;resizable=0;points=[];autosize=1;strokeColor=none;fillColor=none;fontSize=18;fontFamily=Courier New;" vertex="1" parent="1">
          <mxGeometry x="-200" y="15" width="80" height="40" as="geometry" />
        </mxCell>
        <mxCell id="2Tt9mmZAJ2oOAFi1h-LQ-102" value="&lt;b style=&quot;border-color: var(--border-color); color: rgb(84, 91, 100); font-size: 12px;&quot;&gt;&lt;font style=&quot;border-color: var(--border-color); font-size: 18px;&quot;&gt;Users&lt;/font&gt;&lt;/b&gt;" style="text;html=1;align=center;verticalAlign=middle;resizable=0;points=[];autosize=1;strokeColor=none;fillColor=none;fontSize=18;fontFamily=Courier New;" vertex="1" parent="1">
          <mxGeometry x="-116.22" y="-270" width="80" height="40" as="geometry" />
        </mxCell>
        <mxCell id="2Tt9mmZAJ2oOAFi1h-LQ-104" value="&lt;b&gt;&lt;font style=&quot;font-size: 14px;&quot;&gt;BigQuery Database&lt;/font&gt;&lt;/b&gt;" style="text;html=1;align=center;verticalAlign=middle;resizable=0;points=[];autosize=1;strokeColor=none;fillColor=none;fontSize=18;fontFamily=Courier New;" vertex="1" parent="1">
          <mxGeometry x="370" y="85" width="170" height="40" as="geometry" />
        </mxCell>
        <mxCell id="2Tt9mmZAJ2oOAFi1h-LQ-105" value="&lt;font style=&quot;font-size: 12px;&quot;&gt;&lt;b&gt;Fetch Data&lt;/b&gt;&lt;/font&gt;" style="text;html=1;align=center;verticalAlign=middle;resizable=0;points=[];autosize=1;strokeColor=none;fillColor=none;fontSize=16;fontFamily=Courier New;" vertex="1" parent="1">
          <mxGeometry x="545" y="-189.25" width="100" height="30" as="geometry" />
        </mxCell>
        <mxCell id="2Tt9mmZAJ2oOAFi1h-LQ-106" value="&lt;font style=&quot;font-size: 12px;&quot;&gt;&lt;b&gt;Return Data&amp;nbsp;&lt;/b&gt;&lt;/font&gt;" style="text;html=1;align=center;verticalAlign=middle;resizable=0;points=[];autosize=1;strokeColor=none;fillColor=none;fontSize=16;fontFamily=Courier New;" vertex="1" parent="1">
          <mxGeometry x="545" y="-230" width="110" height="30" as="geometry" />
        </mxCell>
        <mxCell id="2Tt9mmZAJ2oOAFi1h-LQ-107" value="&lt;b&gt;Events Data&lt;/b&gt;" style="text;html=1;align=center;verticalAlign=middle;resizable=0;points=[];autosize=1;strokeColor=none;fillColor=none;fontSize=14;fontFamily=Courier New;" vertex="1" parent="1">
          <mxGeometry x="-10" y="-180" width="120" height="30" as="geometry" />
        </mxCell>
        <mxCell id="2Tt9mmZAJ2oOAFi1h-LQ-108" value="&lt;b&gt;Events Data&lt;/b&gt;" style="text;html=1;align=center;verticalAlign=middle;resizable=0;points=[];autosize=1;strokeColor=none;fillColor=none;fontSize=14;fontFamily=Courier New;" vertex="1" parent="1">
          <mxGeometry y="-30" width="120" height="30" as="geometry" />
        </mxCell>
        <mxCell id="2Tt9mmZAJ2oOAFi1h-LQ-109" value="&lt;b&gt;Events Data&lt;/b&gt;" style="text;html=1;align=center;verticalAlign=middle;resizable=0;points=[];autosize=1;strokeColor=none;fillColor=none;fontSize=14;fontFamily=Courier New;" vertex="1" parent="1">
          <mxGeometry x="-10" y="10" width="120" height="30" as="geometry" />
        </mxCell>
        <mxCell id="2Tt9mmZAJ2oOAFi1h-LQ-110" value="&lt;b&gt;Events Data&lt;/b&gt;" style="text;html=1;align=center;verticalAlign=middle;resizable=0;points=[];autosize=1;strokeColor=none;fillColor=none;fontSize=14;fontFamily=Courier New;" vertex="1" parent="1">
          <mxGeometry y="70" width="120" height="30" as="geometry" />
        </mxCell>
        <mxCell id="2Tt9mmZAJ2oOAFi1h-LQ-111" value="&lt;b&gt;Events Data&lt;/b&gt;" style="text;html=1;align=center;verticalAlign=middle;resizable=0;points=[];autosize=1;strokeColor=none;fillColor=none;fontSize=14;fontFamily=Courier New;" vertex="1" parent="1">
          <mxGeometry y="220" width="120" height="30" as="geometry" />
        </mxCell>
        <mxCell id="2Tt9mmZAJ2oOAFi1h-LQ-114" value="" style="shape=image;verticalLabelPosition=bottom;labelBackgroundColor=default;verticalAlign=top;aspect=fixed;imageAspect=0;image=data:image/png,iVBORw0KGgoAAAANSUhEUgAAAtUAAAFcCAMAAAAwOrLUAAAC/VBMVEUAAABpam6VlZvd3t/+/v7o6OnV1dfr6+v19vbl5eaRkp1/g4hRU1Tu7u4rLy+VlaCBhpA6PT4hJSYsLzDb293a2twsLTDo5+rv7vHf3+Hx8fPp6evFx8r08/fb3N2cnJ/KyszLzM/Y2dqsrK3e3uCHhom4ubtzdHZhX2QuMDF7e3tfYWgBAQH+///u7u4AAADv7+/5+fkCAgP+/v7y8vLw8PBxvNv19fXz8/M6hrf39/ckJiv9/fwFBQYRERPs6+4cZqXo6Onr7OsnKjB7LxL+mk4JCQvp6ewJDRL7+/syolA7tsySlJrt7u7/gA/U19ve4N+NjY/Z3N6Tlp1rhp7m5ueDhYzt7vHi5OUonUj///7/ewUWYqW3t7mtra/u8/G/wsU1hLfb2tj/2UeDudLv8fTh4eFvvIT+mD+Wz6Zaj7L7o1i0tLNrbXGHiI2HiZMUJTSmpqeusbhvv993KQv8jClZs3MaMUKanJ61u8r8wInJ09mlqK49hrT+9uni6e3VzcQLGiUwoE66u77HxsTCvrhCeafF6vFMj7khQGzx9vXq+f18wNv++vJmmbn9zaBQvM4ubqShoKCAPCX//fj0+vmrqqm6z9p1pcHe8eT83r/9kzZ3lqbM6NWcoaiIUDv+8N35/f44cng5o1dQrmqNkJd+rsrtn2GdutBhxNS5sqr8tHRFqGBNe6OKb2byZBCNt8X+59CotsFzudKknJey2bundmGDxZdCtrucYUn+9MWSrbZLYX3s5tw2UHX85IK1iHX+4G1cjI/X4uhbco2tpZ2En6v97KC+4sfd012j1bLpyqvjgiZitnvWgUae2OQlQVOGZlr91rBKf4TgonH93F7Hn4dWfWySfHaoq15Fk5hygZSBm2h0moyakIq+PAnMzHTGj1dMTVEzg420x4hcuKr///+0jCeetnx8kTMjJSgjJCcZGx/Q0tQUFBUXGBosLTDIycwiIyUdHiHNzs8xNDc8P0FWWVxzdnpxdHc8PDx8fYDX1NGSlJWYmJgvpvTbAAAALHRSTlMAQycKAQ8gAwQVLzhXGp0qNXr5nK65nLO0VZycs7N7y9ibnUqcfZetxctN/Oazp2kAAIQ7SURBVHhe7NC7CsMwDAVQD03oB2TJEjx06///1ZVk59V3aQMhwSkuNunQgM8iY10LZPWf9puTKK8krwpNrYtoKkvUBiPyNgaRM/ytFYn4XeL71k4H63kcvJIbIl1UuVpKdqW+P499DRGAWT4JIF/wGJKJewYzD8U7GW/OxWpAaMwJQn5g/sKmkRGiVgNCo9zU3elBulSOJCvs2dSm66+blBgxF3vI1Cwp29uLPTPWURsIwrCLS3H9NTQWuvZGGmlba9wgrWh5g3sEUiVFmujSXMsD5RnyDCnhZBuMfdJJJyUrONaryTL2BueI8Cdjw+7v8bJ8QotJiirJNKk3QB0F5BaZtjXIPHY7IkX6AJlWOuy9aM1e+GlcSu12u8MZQzpbFptitrVf1wPxfZ1UT8oLqmMgHvpBUBsQwSkq8Ra3VrlWh9HlvN21naF3VdyeKQK+LMpm51VeP8TRjoHRfbUqtOrHag5Phlvdu9ZMYtsQhmx16ISRrrLqYRQZBkbrn5OEFPi1A+YhOEnwuAqC1W5JT4yLxKw2/T0RKDEEmgkAotXeBOlVXq+N1gPX2+dkI30CXEEZOYUtSzp6AbPaRPq2moyp7fVGwcwQ5CqkVunz9joaiOJFmRCxhSDzGoC9kp2VE/aKGGi1UmaTmOZlekKrEfEdrBZqoKKVXsTRwNW4LrI2q2YAKYGs52QLbKLDAUlbqC06n88nmjR1xFn/UCvBUGg9FYDIA1lZja8Gq0efy0IJBFgt+QoAQsoGwXqlQq3O5p/mk4Q64wyYhIGLVvcPFeliNFg9vkuyljoDsN/rrqC9We0SYnVePT7Whe6gM3nH03zziO6XJgfRnTHbzoJgyxqC7g6mm7vx8Kfi+qVSEGa18e2fQ2FW6+LH9zqjv7e6qR1aq71qAxr2CedkBCdh4AmrOTRKwr6Buw6qqNYfhnvVScmsBma1vRF3QgDCYtxq+f6eTjeTnIKsBkAvRjrbL8PTvMHgTbjJP1m9Kb9d/BIk/rjMuUeCWe9rNTGp21itqTP7ecBzhk/hU/klji6c29dlJosEqg8A2oYAINTqcBTg/2h1tnq9jS6cm1mSNuWllmjqB01TPdWazOYwPTO6DCj9vaWpeXKU4zXSPPcEvk5BWdJkdhM1GKz+xb4doyAMREEY9hAeY8iSGBEUBbWwEmJnI3iCYBcP4Bk8V05hoXiAFIrYSDZa2CVv+TPVpv5Ydh68C5/FHLwhyPKtGtVCte0U06+7GtUO1bZTJOGpRjWqFaJq3tXc1c6p46pRTVCNalRLZlSjmtAWUY3qmynVqCbMQFDNCwTVUhIaAFSjmrYYnmraohxATKb4bOII1bTFQFLWd35nV1SjGtWoJh1MSVtsUzWhLaKaoBrVqKYtohrVqCYdTckuzC/VksJXzYYXqgfDqAkgjRs/ooV3jFfpOh3FbQBgsqc/VNMW59XjOPYB7DL/fMo35/p5+6zy/T1rAwBt0ZlV/WLvjlnjhqE4gHdp8wWaoUunbi3puW7JcXcUnIMrGUKtgI0XCaNBky+gqR666T6BBn3ADG9IuHImKudDsahNfTVc4nSx28U/S+aBjBc/NMjD/6h7rV3NzMxQJS+yAnlY+iryRcpoKrQY6TOB5Qmcmi/noVhNMJP8U2K1CxBeupaSVErurKw4h39i8O1wrz7qSP9xzMdYNUh9q/BycPU0rsi+qjQv0W1dHbzN09NkRwq9tIbkhFhmsME7kpKdTULsgJe7YEUoCVJXBGVO1dUU0jjXV2sTG7H04b8YzkAyXn/pP5+8qVVt3wHf9x1UjbquVnhJEXzcY5L08zd8O53+3HSPt+7VSwYra4nKhTT63slDMMRk2Ue+U9txEApwDGVmIrcnYZJ56AxcAHMPXBhmPZSUj07gocE4oF3wR+1dLTddmd5ey74Sd1/h7WZ+93nRA9t0dQkaXgrgWx4LWaw59yDRIGmcCliLsQBhKcBXhDKIBOiUTMgISpyBWEsvueBBIjN4xCC4DILoN1bOIGIH/Pp6KIrKWWO0/d+iXXTlx93N7TXuJZLjNZrPFy25b205rK2pfQfLBbp5+rw6liaAGdT2hQt/NYPHDCijv9g7Y9a2gTAMd+mYsUPH7OdKqmssGqflbshhiJCTomAENsaDJ4dyXiqTUBucjl06ePSWRWPQmqnob3S8ocIJioMn2VQyOdtCsqSjypbnzubjuMMSPBwfeHi1zxgjBDGGsKPWoY8WfHYAV19bYH9i1Nlt9SI9mUQQssb+HDkPJ8+g9dvFgRNnM9iu1wWzOvFxAVtOt1pu59pIvFCzjN4AKp6rQIiQddyEGoZaIPVqxhFYz0AY4gCkJVidnmIJhMgK2KHL4ezeyF3rvfHBLP6OjlrNn9O6yPLfYrEs/xcvlIuU0bZUs2X37a/euPkbLUdEtUY/ji89ezk1JxdYiyF0Swcgn2xWC3kEQMycxl7OVu/PnUMQ6iBAUESu5NBdDZIeky0DkGS1TmmhoNNgSFCWyxmHLPp7eUbpA+cBUc5yYIPI+QNyifcN0g9AaWP1L9UkZNK4Mb8s++Kfs97QMMY3lkWM8fXJJYpVmhEIDZFPJquZKzyA2CDk2Xw/55At4hxx3MMCszo9Hjzdar0iFahepJJIsyNRPiq8Dbj0zPtpJf83KK2t1mtWszsmRmNiGqM6WjaITQzSt7pnk+Gip4ZbkEgzjRFD2Wn13y2rc+LunrzOt6s+f0gSGkQTVOLaan6rdfq9NTBd99SVaPUdhxK8ElW5rS7SdPTKT53t57S0WOV9gyqH1bTmteq3V48dt+ZOFeTV29Mrd3rqDbvk4tGFsbDOA22sVpKtBgLwYXl5Qc2yMVe18LQu+BV4/7QThCLbwt445/l21m/md/FdD2CTn7X3iVbfEtWa2tcDKpX/0XbGKgrEQBj2JXwLnUuOHXbZW4TMoXdbDGghiHbW19tYbm9z2Fv4AD6D72Il4l5xnWBWRHZg1QTWLyGkmJ8h8BHShRJn0jjxQ6eeAacG7U13077W+zbQvvXPA1CyOooUBAGjQkUExKDArkNjRkymGvqy3JRmthMevUDk/3X39i1RI7Ghsiz7/2ajTrLjt7C6wswXWf37s50u1/M8CRWlzugw9SPWnoHQJbBaTBYrUe+Mjn1P8DzAJatRAQeAERKzscvlCg6YTJXThclIhdZIbAepCBiRQZlHVteBeIJ8Zo06yf96QsOakVaf2bt71raBOIDD/UC2q7R36I/6hg5ap4NrKXBBqFQIU45Qq6YKmCYZEoo8BVqDCCkkQz118VTv/RKd+gk0xCigoqEQ21Qvlm0ltclgF8n0J0ucwOPD+eBk25ntxD1qeV7FP87jCsQ5eFlXVTVjK5BENVi2r1kCG2o6VkChXHnkW5pbuomamrY0bAkD2/Q4ESkEsT3JMLcwh+epvgxUF6LpN1luRIN0d6NjWvKeVDN/D7zZ95arup+ovnRWEB2rjj+CUnN1MbjEo438qVa7L847xaKaEdXcjGrEcSXZH9mG6MlYNq+MkcGkkU40nQtXzzOkg8Tqtr/9iloau5IblmwpA7kmjly4prqQ+lV26iwn+JBMd5sXq1L9bEWq5+7CqGpRDWHnT7VaPNzpnredbKrGGA8te2BodqMmy3Kj5Y+qnqfJ4VIkZj2+kDJRPNs1NPPU9N/+lmVP36OWtKcB5nA5rTps2aqP3j1KVPdzpVqU+6nnQG6WT9Wd5lm37jgZVQ2uqUjuRtnWtnyjpumAqzXTrJUCxmJwhpXjYdnQRN8VmK1JllU79QRwmW0ogBeobixPdWENVBfyrzrprNlpNw8dJ4OqAWMMAkJQ4gQeA2BAhHAlgAr5SwhVMCYcDxgA8VDiAG8IGGNE5u7CNMSlqU629R7nTfXFWqpuN086zXY2VSOE+TBIQkE4PnFQdBuFJkEQH774IAEwWqBaXpbqcqw6j3P1g7VU3X1aVOv1zKr2Wkn6LWtN8/Qaf011IbULw57EEZEs6juZ1/Fkrk5WIL/+lepgA+B+MvyvejbVUevdcL4+zKBqxgMQfeCO811/ktfr9XYnjW960/Z7+1G7ugCwQPXn1+O+vpnfp59f5uZPVcetXHWFiooy3TglVKSMEMZopSIyhSoiDQ6FKdGAUkliqecbRZqKrafqjzsHjvOt+SOrqn1KafS1ATZbdf+WtQTgK/NV/2Hv/Hrbts4wvg9knh4uOiOteStIONNyQYjVSpggYM0mVNppjWAO5CxOqtSYnUEobAUw84eJl6pGOkGIg6JJOhZEMYBA0SFoNxj1hW52r/0JPMCBLp1g7yElkxZCy45lmdL2iDw8NAQYBn548Zzn8KXv/MTXslUYngTBQFWYHIYZnJ6KP4yaZv61Gl1oo/qkfDVk4i2qJSTKysiZkRHOUFL8GTEjI042dEVRZVXWFQSkSykjo8MXU5mMLOjbUiBRwhiF7geSagB6bYupj9CCzcSPao5DizuelvZrogntk45UswdRfQGo9mVZVqFYKD4tDhcKxVKlUCoVi5YFYA8XgGrbdUwT0DbtUZA/Nb3pQs8zEAmBZAHg4XRDNdhzhBdlXdB1RRBIRiWICkuygREiyq5IxLSIUSDCExLcDWatZrbmPq0z1IIwWuyoTnIcL6d1PZ3eDYt6EjhBjd3GNv2A4Ke7Lek6HL4EjufQoajOVXOV5WquCJPKJliSXLXaovpz1y47rm27ds2mF9dxXdduo9p/ZK4XVAOjWMnwUAFUXlHrvKFKGIwIRhhJKCyMDEMgyBBRSIRgPOBUM/UrayvgQyC0Zpg4Us0l2WRInKeohgNfSS7ZEsuCAUmi6F2YMNW50qZVqVrAMzBdyuWqmwHVTtku1xxKdq3mguDSVqubXPTAV3ullghGso5USTVEXSGUYIzahQnKKApGgoQiNaC+euMDjWGYm2c3Ykg1SwneB7GX5MFBMBzNmoNBpCWa7CUCznlKOe5M9bJVqlhFazlnVStWzlq23n+ayy2XWlQ7o3nHdWw4YCjbtgNcnxrVPr5EFeqKkhE5WcQoQlgxDPi6eADV6iDm1RqNQBhNg5J9rR5LqkEA5z6wiS9McFMB0glAur16J0mn1SLIKkzCerFQAIr3BEg3qc7ngWAYQDCAWjMzYrV48lRjwWAVkGiQKKaxZCjUZxP0P0Y1s7J2A9DWGEhBYlirA9dBFXBNRfYp4SHdFBeI2hB8qAykWCxOUooBbj8O8e+81aJpl/MmlGgguwynCWd+tByieqx3ebXkew0iyLsplSiqGMG0KGBZN0R0oIh6oAPRtL6kGgz1lkf1yPRG7Gq1KHkIhyHGTd8hIZpS7UkCIUw/BBNP4Z1GIUT1UFSttjYrwDVAXIKxQKfe5WmRUl1+6OTNmlMrgwOhDhsAL7tuuFb3kGpdERHGoqzrukFwlP3AkqFvZxDuAPV2JNVaMOk7qrfWHsOowapxeiVuVJ/hxXalwgq33oYl7hdmD0N1pVqCFWKuVMlBBlKpQiCyWcnB4FHt1OxRs9bMPmqu7cLc7h3VsBcfojqjpOSMnNEVIqSioaXgi+KBUOP3vvnLfHSt1hBrqIgVz/Uf1QCzT/XjuXuxo7rePXWmGjI9LwKp0rPytLRZreSAc0r157b7vWm6ZdeGj0upprN2qod6VKsNvp7EgpwiXiHGB2B9ENMYY/LR1+/OH9C3eDl9e/aTxYn1/uuFgYdQfd2c3hhgqjtnIFY1Z+W88gyJHqgEUQikIpWS56udsgk+ulyGK5ze1Sm3Uf1Wj1aLsiKJI8gg6DjCgmyId949iOqVmZ2J6+9ANy4RBfbQSnLs0QT569F0iF8wvbHuT9Y31q75v+B0/wKRDXW/s11RR6pB1u/BUoOnhhEGmnxMwgg/amYgzegDrvm9s8e1+pctqhvbhiHo4vGoVnVdeRJNNejmTDqb/XBn8RbLn2iPOdvtHvMz1+ZuMP6UuTd3bz1ePeYkowieFEE5qoRAhtHe4fXavLo4SVWAswgDaNiX56td2ye5bObp1fRivd746hftVKuyLqUMQ8THolpJ60JAdVP78w/hlqy+zYq3+s6BwJ5ia7oCZZvRYtU1gHiCWoF0AuE3FOlMNfXV1mSxUixVSlapBL6jWClNBnm1+0PNdhzHdGq2WS7bdEfGjKL6+clQHTgQEcqsQMOP41EtK8b834Hqf0dR3a95tUYbYZpzhoGNmHhRbewuZnieEJ4X3jbSH3s9Lgn+6FQLUVSHMxCgOAfWugoJiEVDECsXphowtl2n5sLguMC1XXPybVSfbI85qFWrCVFkAaNjShIxTv8BqH4xeH2LNAJpioEUJF5U6y93pD83VNTIPPxw4aqyY+hwpKVjUR2dgdBQ72nOS/SqXr4Xoto2807ZdiH/sGG06Za5HUH1yftqjiCM0bGFERmbp7V6wKjWGO8pkGCb8QrDxKpWL/yq8e1Mdvyi/vDi0sXs4rer11dfTYx1j+qwr34fnDVswMDg7cDApkyIavDR5qjpmGU4aPpBJ6OnRTXBqEvC4vzEXq0eGhqQHXPm5vSVvfIMiE+vxIpqWXx4+eX4RPaO+PDJQnZ2+8tP9NWZyx+RblEdfhK1UghaBuiVbjMGVI+WAeJW7gFjPlgt9r4XJkFQt7jGUgZq9YBRXYcIpEW1pkEK8rjOxKlWLy1mFhZVfbyxO97YXpjZWTKuTyymyFGViqzVF8K9MAU/yCu0Hgah2usacMum6Ti0b8AeDdRDXx1QTZcaqFtSB45qrf4YOA6oBgsCdzGimj6AR0iCdpb/mqcifIIjY113ICBrOEJ+BtLcLHdqjnsqVA+BWlSzLOqejMF7H4jXCKMFkG9M34yVr269FYGGH0A0eUOlDuGrD6badvw2GJcO+Qiq/W6Yk8qrgwyEP8ejrnkQ9cKLQaOaNsIwmve8oXfARgzcxI1qXldnsgbYEL7bVD8/bK12Rh0q27Zh7FCrT3wXBnOJrkGNjAHsGqARiBZk7uzZDyAYYeJGdVZ+udpYbdyG+5DwPp1srfbXiXl/mXjaVFOkceSK8f9Ur5y9AuPIfbFpbdZvzD1mNC0+vtqnehX+l/ar2e3V9JsV64QYpvqtN/HVgHK7Ti8DQYjGIF2iWh08Xw0tAzD+6XePLk2df3b3lrdrXmeYmFHNLS0KqWxDHpcSh6O47ROm+jcRuzDL8ac6qNVANAh1n+qfDQLVNMpj6ncfffXs/NSlzwDtr+7TlzjFrlYrCsezHILbQBgO72yOJFrRVD+Pc62OdiCg7lE9cHuLDGWYnbpEUTt3F9B+9NkCBNgxotpLP0iS5SnQAdSHK9gt8f1aq6OpJtwxoB70NydsTI/Uzz+6u5d7fPy3Kbq/GKe8+qOrhDcaokiSCY47ggEBvZ7qH5+srx7qCdUJlpd6QbXGnKlr/UY1vAr1/oPv6oHuP/rn3FaMqOZJ9Q6fvDx7e0do8LpOQsIE49bUP8Pywe5Idb/WakQIQr1ZLWr91o0LT4GsX5paD32//t2Dv9LnnbR4UP3e/BdfjPHJV7dXl2ZnZrO3hQQ5gsC7dHIgfeurYegB1ZqRSbHien9R/enaFvUf4e+fm/oXfRgkJlRzV7/+hksA1e9MrC5enskKiaP7ap7npUHz1aDuUX3A3uK1V+mZo3fjaqdL9b217x882/f9EUhE/rERl/9MZ/DcGHDMbY8bKXVCmV3FhApH6jVww8H3dwbyvBPVGM6ISAQfhur/RFGt8UvXv/S7cf/L3dmrIAxDUbgP1IixrbmKk0jRwcGhs+jg3KFTQRS6dBAcxB8QxICb0rXvIHmOVikI9Qm6dLmLJYNE3M/dDod7A1+ODJqqlsbla3GLsb5NjfvzeObfonFZ9UAXX4sApskoA6DW1JF8BSkXa5TVqG8x+4+sRq5GHydUutpyPrg6geXuJEPjlmNKG5/JNb2ME6QfdAz+ED75DRq34O58X9vW7jC+P2inqKtVe5nZkJiXtUWNaubOaCTyDLUs7F0WNpvUZe5GAxnODQ5dlFzZE9hYjAaLMd9hNO5ljDWwK7SYgPOqY29Gh3q7kUE2vxk3DfueI/+O7bhJ+iM7dWXp+OTY0E+fPOc5OsdAtceHsSRfWkR7ff3IUpQr2p3nEfMwUCZTfbFaDebmrdzddBJNmqZO1oVDrEs3x40XbSo8ieqN6LSrcQXXkeZUrS6rcHnBDkSY1oFAw8QLa6i9H67VvxU33pcMxOvd2aK9TDLim8E7+JLigVouNguId3gea0DIBqrgQAaofkO++svvjGraR9FDKs2xDM+H3dWNFO2DwyQHcu68WhAcRbVsU9INAx62AjUXR7UguPcmoWvTUP17EOXBuhk//jR/3m2+L1Q/3PnNA+/M4uHmQeToMBI5iCwvH4SPWo+ODhejoTA9bKmpvoSvk1lPR/X1y0s15aPYIaRDfCzGUHh/J7AhbMgzMa++kDtR1fRNQ2+YdU3NiXZFty4+AymjKbRacMBqFIYpJdLtT+yK7wnVTz56As76lde72frg1fHi3aXHi3dbS8fJV48ijzb5yYlIx3+MdSAwWrxIrX6zvhr+04ylmh4QXx5UOkRuFGGjc3yIiUVZ6g1STZCxjIal5lCbCVWqmGr7xemp7jX1K6Ki3PC7FWXiakzz2edWbooMRMYZ3mBZ2Svj3gu7f4dnB737ZO/h/VmfZyZyvDS/tJRMRu7Mzz86Pr6z0Fo6nE/enRnCeMCC9GYXfVNlIJeXam5gRoaKzrEYaQ67aY4NzoW5MD8B69i5HQjoo10xlYG82tJ1u1MjApQyiHj7GgnCKKpxrWXLgK8pSWkj3WhIkgQX2NXoeqPx4nu7L9OyhjDVwlh/I5qVZ/FsXwUS0N76rT3oH63FseEWrgno3ftqMlo8YrxR+CfiGBZKNAQnV0ILLe+oUI86GVkP5dWXU6t7GQgZ/I0PQPgohYs7TwNuhONo8Go0Nyb3C5/fgSjmTXt4FkaRKw1NyamWjL12Oo0PkmxpIjQYTbWDwLkQmE1Zll2+TUy2bam5WiCVr+4+SxuSJYKjGEe1ljasamIA2/LerT14AN8ov/tXPJB951Tjfdi9wCWw7SXfjOFqL8nsWB91eqoHraebhbl+mag+obw4B2qfsTzHDWIO7WPMKKopeIU6P9Vsw7AAmuG5RbAhOmbZrKs5B5HBZNowDFlxRlLtlM2bdWWMxW6mAiVHyKTymmkYpiaMthE586Z5zwlU+6FXPry14nf2bq3Au2aLLw1ZfC9W43pmAWrPcLAxfWI9ecb8Ump1aBhRigkxYDsIzLEYx43Y/5QbscyA44Mh5gy+mlAj4IIB1Yw0VkAkuFW9uUXBAt8hEkJqJbcbUbUNXYPWQ1TDtShVtIF36JVs9XZmDVdmbucd1U5XJG2ohYNc12MhvGuC2z3CTVa311ecq22sUbVo64RrBC2E6al2YxjSa1mtux8TnUOrZ2a27tNXF46T3hmyHxn89baikPFNQnt6X/21S6TVvQzkYJYagjYYhByPosGeUSycjPAZ4TAFL3ZqoMAxHGaZWPAMVKO+BNkyJBbzTOoRcrW63/iu1fKJVKrazHYk3JBzzgmq1Yah9QgSEDwQ7gWesPtwKwDrDMhvvWGYg5k4nOZkQ4JKhDeOFDp4rm5vP3QEoBrtAd1OLVUtyLou43bC62u1olpmA6yUpPkx1mfX6gdbv9rxXj1+3GrNH80vP9pciCwszy8mk5tJdgjr7ryLjxxJgQrfsAMZtx/IJaI6OMeyItVx1BTH8CwMGEF4eZ4PxfhYF96eKrOYezJo5KA6HAuDtNNhhvZ6gudwINcUSPHMMvbEqFQrZbNrfuSgcr/MFjKBVCqRgWOxWshi6gXbaGjDDkTV02ofpgj1TsF9QKjhgu7kb2f8zrVyXTdscdhR19t72pTaxIpoZXt7FXoFqttYZ/Bn+dzQbfV1HYhfteSGYTRMS7QaFclSzuNA7n+0NeO5erwQnf/v4eLj+eVWcvFg4QfHkPLxvtNE2j2CwP+/+Wo6eDAHILvQ0gwfBFox3AzHcaEw07Hdnp5R4aDMskA/BYUJ8jQoOsOGgX/qLBlIWdUsCNukdNqoYJaQkwVeUsViPB5IVKuZTD6fbzabBSzScRdmoZSJY7DXXMctKwNUa4aUw3GFi/NarVl1uygUCuA+NrCbQETCwWFX/WWQTdsw6uUOcJotVSSVuBLydbhk7Pnx/i9//ltoQqgWYNS4/tBB2Sb+SM/A3qvoNWY0VRsTLWuuKUeaVEnXlbM7kHtz9yDZ23y1EDkEG9I64pe/WDhMvkpu3on5xnsPXxfvcWthLv4+kJ+9xQyEZpkgcN02xzG+6yvcw7BUuxdYnPkYw4WDDCXSDA+Foc6W7Kl4CrEhmbJdV4nJAKYzhUIzn8lUq4lEIBAvFospKIl8rbcGZaOGFRs75Bt1I631TZLUcTCImRWytXw1gH80Hnd7SBWb/ZghkO4ExtZhZSNtKaLmZiymBeSSdKOa2ECAo/in/b8839//zsc7NwjsyCl/uL4KT062WS3uvnhpNGy1O0ToWiu/ksuJqptC9iOtm5bq768zDV0WO0nlINWo0+v4DMRN9mgaMj4aJyJMxOebgTPad9r8S28SxsedTvX1S0Q1RpcOHTAEW5bn+jieWGh6NtaaC7E0XqPuBtpno/qGqoo5pcPCWr6YypS6lnsjuwYlm82WSiUBQem0Q1iFM6l4c4O4a9OuW5amqqwoV2Q/VukaBroYqOYLJegjS7qoZfvcCCG/kAoUhA5ZuruOPNceHSK0Ea/iN3zw9Pnv1ve+u/Xp0/2nn27liO4qP9pede1NyQVbl7pOJEfm+6VGI41zmwr0atqWJiKk2hJGWhzQboS5lnUD6idpNRpLtQcne4Rtn48YZe9Uq7v6qPZNyqs/uARa/Z+Ra2GYA5ZyN1fHgE61UyRNgb0+mKWxpJ/rPhDB3yUVCYVAqlrryHH2k8/+8MfPPsm2X0duUNJFEkotcTsBzZEN+OCi67q7GquUSRUx0ALhAY2OQ3B3tXgq0SR6rUHIovS3WiskboO2rz7Zf76+p2XXNgTvAwL2DgYbxo4r5bZtL+UDqd2XFazBWp2sRYesXDLxrx9LsyxSY+gNMB5SPTfs9t3CymkAXhNPGHFFBBNuqo4wXqu/sUP72OgVLwi19woFFR7859T8o1+tJyR7/btHfn9E6VI9rnyzS/VX3hrVGEmYNHRR5oLhKZebU14PH6Zno1GWokeuGgBzNh3V/+Pt7H8Sy8443j+oTqG7FEInrZfEsmb37r298W5umnkLdSmzupsaYzNCyrgZZpyIOuNE1EGcIG1QnG6DGtetxBDuZkHQlayMS6SQYAZnaRt/oOW3qtnvOfcOKKzOJE3ng+QSOef4kHzO43NOuPf621A+2x94F51OL5V01uMenFmH0LvJZDQR3d2NJfwj9fQ263bP1rOXt+39p0jtnqHr1x+TAj01gzcWn/ZNb6YHaTu69UGPisaNjKA4xky6XFMdswdP/NOA794R00oukC/Gdn+LMGLRRCKxWc4G5AjngdbvhtKq2KQgsr3/3T/+RORdTaHoaCi0PR9C91W6LBwfcfoXF/3ACUYwWZS2LUpxMjOEri2zsx6PZwg1/iqmAmqi6+fX1Xr9fL9B29NzzAg6ka9YLHw3a9FZmLfPPf+lZrShhp69wOqgCu6b4WtiVOWTb1T+2sRRo9W/+L9brUO25Szm2l40tGbPN5tl8VTulcsKZo2O5Ul2x6/ZJqtf88oJ0Aflc5tNKZ29EHqlVEwmd5PF0urBFw8fhpZvlpK7seia3zk+6x5MD4fwu+H04G2nfy2xNv7irR1bn915ekBvV9/2LTRS2rkb/GrBnMEoven0ILjtHppt8UNg2wOnkkHps8Vvn+57toOZtRfIFCHzGiGRiEZjMUy2vWw2E6+uz6RDDyG2W/0cXlQiW1u2rq6nAPMUy9NF/8hllOIQmdQ/WCuon7QOFsVt6GEnzRcXLUTs36F4QfXyB5LyURKtDGzu7Iy0nJerP5ycD5uxs4erWB+fTBwfd5/cOXl0cvXXkuHVmVpHi4+mnb2Ge3jNj9X4+1xXA88+ax07y0edw2fp5GpWv7k9EFa0HKE6BtRWuqWn7lI3n6ZrMOg05IrXGp4XeLKvpxOkH87VuFnpa1n9G2c0FiXYi8XSxgYROgaL/ENuMAjSvaHQwSoxOxaF6TdTk5Op1XKpGIvRpmtOp33aZie7JF6SApF69wuh3vRj/OueDIcOwqmN9cdI4wBjpdPDy0T35fBNFAilUhF/PDHz2AQjp1+65Xd6n/Zt7eOtWDEfiDPj9cvqQVD4CcE3ewqZbL5QKORyuYPO9CTiRLimHTs1uosAe6GszYblLqBL3mkbjFf8XfQCBP2ALIrn5ua2MSH6SPOt7+rsz5HOGMjmP9dq/eQUZzRocc5iz/EH3df+233r6sQHjybutKsnel3sNZx+tdVXFFpbr3R0tTUw9xmuzT6G2/SPkRZ4XLnX2fuz0/QGVaulN2i1STBbeV1tgajjLayW4TV09xpfLtCcLTv0dDFy6W2TQL8bAqt5q67pSr8qjTa7KhzDNd0bd2hgE07HksViuby3B7VvVBwOxyTo7+9fAuHwaO6PuVwhryLLyjGbych59CilSvtbhO3t/c8//+Zv+VwuvrBQAhhyT6GczxdkGRsZ6CMXQB6o79EhNga+3d+malHmisVksYwqur/ptATV8PEvl+Jxn0+W5UwgEHj+PJe7/8XDUCjU2ztMSKfD4XDkCT4SKJfLXy0s3HU5ZmYwwfxrlATYLK2spFKpcPiA4ENYCGpfZQ48e/bt5uZAdcZz/mpRf5vU01W9y3Wt+ujj7qOJQ1dl4ugVF0c1NFYgl865cgL2q+dbFc6xunMqeD84FfwoOHUvGBxrbbZ6+cs3v1pkedHC1LRFDtYZzSRXa0xWQYLAp2B1Rh09siaOV28nw3ISChb2daxev3rtvSdCy2WjSUsx4qHVtusd8+G4T85kAyATyEASQkZFPkWHzxePR/CDJ1GqgyqVzcLvLAiQ17RDhhKoowzUUSj4FDo60JlCm2WBDGAV0Wovn8do6OLjXmiBGi7FQI/t2nYkz7cut3uuS8Khq/tWQUYPled1IDsmUw25oPwFOikJCJiSyaBpnVpnFVk4E0bjzh4wGkhQLpder9Ub8byw/jA0FdZ69n+xejQ41RmcwrFzrDFXg+Varn5zO3sm/qiebTWSVSu5eDN5xfFmXjBB2DpYGLIECy8Q72kPKyfwoqZm9QX3hVm/s/DeE0eLQSMykiiJjNUsiaJkcsC2eGRpqb+CHM05DpGoK46qgzvkOAHwkiBZedGKByOapUui2STiwTAm8ZIk8oeOG0joEQxw54arWrUcWSyITuAE7lCocnSsCgbmDnnBKoomiUFXkZXQn0EYksQLh1wFQ4QjcWRwWcUXQTgODk0YnkE/iZHMVkZExAyPmPFCiZ/BkOIvRQ0CsliOBgZu3L3bDRZ6CBFCXJl/hTp0SvkwM8NLNSK1tgWVWy+h3X2CJCphMAhDOms1Aect6mGq0Uit/eHvUzcWI7SuVtVu3gN5fauxipyC1/dHR4Oq1d+zdzY/bhtpGp//JxZdilhDDkezThGY0epQqFKt2V0QRmqacBMLjCyskksbcrZ7QHUOnbEBC91yDsZi+7B2YCBA4Phm9MmwL3td5JJ7HWbBAbghdm3oA1slU6IsqYfqxHLbSD8yygXXSxUF/PziYX3x/Kn2oeHQEkzeuOiVBIrHi5eYD3WzRBAEULUoiBPAMSZoK51It21EPQTm1ldfWnhaLNzed13eOZjft5jbOsiLU1UUa1baQf7oyDo6kNo+KJweXy5kbIQcTwApJT+vnDsulssyySrllY7zx290kEsvPTw8lOPzhzOSX5TsTF7uQCzD0ndNwzItY7IS1Zz8DRW3BlwYwp7OvYxlSFng9DGQDKrvfnH3E/m5+8kn0oHImHOkOl0HUpbkaCqNYQgAQLRQ5s6Yai7LLcejdLIWBKgPhABuqX+ZCkhRqgMlRbUi+tKyXC0KOVWIPBArq5A/K6RnPg/k7Zwf8vb+XxZyZ5oxl4bk3k3TcmHga4YGzZJhlExdk4VpGzaw/Y5VypfqWJ/m50RmirVpWG/46stnoVo9JSaSfC+lev2+ep5qSU5BGF7IGHVsaNOyMKitQci4jjUIEHdQArHPOZGIU4oYnd9o4MmLpfiE6r87C1OyVpZhWmeTYVhnk3nW+LV1sPpPtmeoPmjf+3bXyrdgt7UxGO00uk4w7HYr3WZdDoUMg36l2eo3Ri81fcZ2mHOmWgqIqf788eUzOJAvPn9wd9r+x5Vy9aX1j1cDa5w/fQdQQrjOsRDA4xRR7sSeA6QgIqrkhIXcoRjLuPlNXsBhlHiU0VXmFguvH7p1M5GWVAwAjKQKJm0QTRohnMRjWcyF6XgShqeX2tNGYEw6mPYJ9UlXKA2b1IC+0BWEk+9A0xrW57sy0jAtbVz8edMwMw0DkzDbnjaa8/dhgPGVRmEmV9/7qp03yj1nFAx3dkY92qqE/Zc7LzuV/s7LoLvxsvty51WnYkuaoTlZiTorQ8n66VTf+VpRneh9odr3kVkoFmxCbcxjxgemKNLQo4RRzkkJS2Rt4kDMovG+GGgaNqMJy3DWhqjl2BlUn11lPTGuq8o6q6OAZ40vZwTMm2Vj5btP4o2zRPv5g2cHhpH3ai4LojgaABGMhnHHpVHHdb0gqLkdNw4a6TB1NtVzb9DIcCBfff1VyvR5+mrletNZGF+K+l4Yh1EUEc6LBR56PgkdHVJCFbCcUMLCkI3XUTNWAtoySeb526O6Oi4KxTEg1RUvUHaqqirVzOhqgl5BFat/f7UoL0i+IDteFeMbqq7QRUGM4wqF9A6z5athPEO5lrz6owxP3PWKanzPMixzfO6NKidULyZr2f5zHMg3D76+fvfcqV5c3QQwKiEMccwIuYKh4xcR5Ta2ZZNm+w4EGrYRC2MSctsjhNtw+d5dGf82qTYH5CiZi+bHK8RXT0I/l1y5KcuscG3Akq+1NwU6ymVBWjwZ7Cbzi/4BpbnMDuCA5YWS5fEcOsj+BX7IX1dOyKbPjnOr5WpJ71jmxLhIuCW3Ct/FcWrJ85JMbVgWnKX6jTV7WQ5EjYG8f1RLASms0TCOEQccFUpesjERQOU+JPdOSOKQI8KRDU/dkZ5QPZX4WfJuDdw4QsGu2PunI5Gt6n67FnXYIMrtBcFxJtVi73Gn3SEnwcHt5/f+9cmzzGR6+zmph8HuXjt3Uuk0Gtsis4ObnWiv7Qfb0Gv4soMsHT5v7xPVQdHrPKnXd8WKVBtTqqdkS6iVj4aqSKQn/sNMMnUSnkF19hjIF3IM5Nyozj4PBIIwcsPQ40VhxmgKK2K+tuUQx+GcErbkDL71UF2teo9vP6906+Gm/eQ/tkWmctW9L/eale6nz45PHt06yoJaQtf+9yfDVivcLuxFjyptkaXbj473N4a3An4s+d5vZUH3uoNmt9veFifh/rCdTXXvy73hsCc7EAOy3322OtUJ1FPpUinPb3KdjFNPyU6wBj+datlw3lT/mFD98Z/nqTa2GGKIR44Qec/fsh2UTL9QijBDW44NbMLBqudXX77083J19eTfOh2ZfANu7e2sQrWQKbpWj2rR0cl+O1fNhu7WfqcR7we7wmt7PQldLgO6R25Qq8W19vHhI7YXHGW65L1P9/fl/QS7WjeivRWofhTsu7UwiI/3bvmd2oGorupALCOVmWbreQsyP/UyzdSGlT8tV//tr5UPg2o1QTK3F0Z+MOIEGwBwXysISLmSM/YX0A99yjml0EZcRp9qQPDb9NWFQ7skzM0ikviUMyFVj1mWcyDwkbGZUy80yGXG551NAQ4OZWw5L6rH2U9/unN0aJfhVrVqlcFBts8/lB3o27KD26iUqxaEyO7goFo61jeF5mwDCfWqVFsLVCulvnoea32K9cR/fPBUL/hqjJDvcEbi0KUG1iDyHOAzB0Bg+z7GGHBCGaHc9lkcxRwqrsEyqqGZUD2ZXRTr1IVSqo0ZzaTq5ZsV01ydUm3MUZ3MpCkH8mFS7bOQ+ZT7xMF0bKchdjhKXjngUBuUPHSwbWOAw0hGErpVcpbbEGCClOrxOpBz0AXVCdeLVKeDetm5OqX6t80PkWrqUeVAOIcafI21BuAkBUNOHYperzu1Y0JtfTcKSeiApSYEg4ynxTXpguqU6zGwE6rN+ffQLaPaOs2BfHhUp+tAHMoVx5QDDJzQnj/ISbaWHt+/f0+DduzwuITCmDjhssP5VOG/Y6ov5JfnbfXpwyD6PNWK6CW5+nez66v/5y06kMkD1/rnFvMsQlDzSQlCELIt7Q3ZHAC9ffXq1RfcickWjW2fAxJyqC2jGiD2zqm+yNUzssZKAV9Qmp2V8qmK9juhes0je5fSXQMx0Rzq21sAAkrmRjiQDzQ4pno3dpHOIgw14BOYRslqKjq3DmTtupCFbIxt+4qdqmSXSiV0mmSTXVJBieSlVzBGs1TPvWvgrVG95j3ml2bGq6nLOCFwC2sQYkJtPEt1SVKtbd68f7+NIg4BionHSRiVIF52Eg72fhrVxaJ435QXoix+iVqchXmbVKt0uk5f/bv/TagOY8ZoyLjKugBQ8gbVNrU1DW4yxkOmawDuRgxLtDFeOl8OuHIg8sYvL6yv1poVtyBm5G2MWFL1KwNxDhpsjLzZBnOnUukm9doOHwa1XyLX68/Va6Q6zdUxwyFFNiXjHTDYw2+ASjnYxNCJOiGS0G9RTwc6C20IIdCAFFxcB3JZMr3gq/1XWp8FQdnv9YywYQrhtsJm0a1ZtBb0K+WorvNaEAdB4BbCOkBB3RZxD2r1UKxNtYrf5/VYxK2gGLhFUdRGDThouLRO/f+Lhv2wLrwe/8VTfXZf/Zf3gGrCoUchAJxwAAAmzuwwCHC4bNIJs6GGMbBjbuqmDKUcw/HyaiwLJZBBtXNj2NRrN2oj96PWRqtfFlG/2QgqO61ehfYbnabbrW/Qfmuj0Q+9yjDoB8OgGZf69f76sHZvVLq4dcMd1V92u5WRbGh1xHCDOqMN+hEfjegrtxkjoXRBtURXFhlUvw765vqvz43qSxOqQ8qIGn+GVzyGMSHEc2CKNWGIe+TTm7tQ29SAR7dZdPPxTTeinrOZvFBUfrBtj6ua/9qBLPpqfqOmDXYq9dawNep3GnnR6XeKo5EbtWJRiRs9UWnVRN/r0VG9W9todOFGpSX0G27DF+tS8KpTbvX60XDYeNkLlD/qumJUE5VG338luj2jv6NQv6A6Pbvpkx8eyoOmHv7p4Yy+uTunb8ZnN13/7tffJXrwLqi+JDVDNR8nYimAKaMhoQZNszWghFL3hRwDIRBCh7Yf37+q9OIm8WhpC4x9CMSMEYrB3zvpl28IEQ9HjUazHg3rJSE6DSFkDdZjMYr8yigIAtEc1Gm3MZIxLVwZVFp+txuJtcndEUIm6XhU6QQ7tbxs6HVENyg0681Bv9iqmxus0iIXVDf3vv/++6cPpL578OCpVO+/ZtS9k+rFTP3pt9cnn3dCdWIQplRjmECMIca2R/JXfABmLAh+qjh+irlDJNOJfnhBeMgch1Pm+A6yWRwigDX/tBPJioYsSqbl1j9ieV4WomzJBugUrXzByAvLEfm8MMpW0SoayDSsoikMXhQOEGtT3hCigCyz0X0lbJTsDpO3U0aGZRQsdQt5Py8unhb/8/f//PD6Z58pt/yZ0rcPUwPyp/vXfqN07TfXrn1+5/NxVdWv3ZHu+nQH8uMacvWYuX9JqGZTw4FVAR1uIb8EAcRJtn42RvkF9djjqzO6f2+XUhJyHoaI237ImD33FtHLYlFe4BXFe6VCHKDZhgv9PzXnz9JKEARwP5CuEy/rnUGEW9D3Uiw7WbMwWCgeuiKWqWKQaK+vtbEVCxvB0l4E8WukkQiJV1p4l0heLn9f4iOHPzgWphi2+N0ysDN7Nt9r9fpNV61cujvqtzqmbXWbyOrl2VndX1dLkxxD5AZdjmhQsTguAmyf1Uo2igmuKtaqSGZNSIS+RB+Y/bf+6tX49aw0if+srx3kI7GnTZNPhVlbfXqbgtXTTXgt/q1AAsm6ABZ+uBlhw5CkZICGq1ZdTdGSpGywXtdGSCm12Ik+YOP7QC4aioJ97vswECZgMIINicspEjEZCeAx+CaS+E8GGLRgctQtTLPwfBxZXZrY6jRmzDtntRWB5awbQ8LJGVS+QYsKiXS5UeXZcrGHx2pWK1QKuUEAIgAYa/VWsLl9fblQc73aYPLD4hPeSzqZUYlcp/Y/eDr4ubwcdjR2ncmsvknb6vEViCDPJjr1QKgAFYV14eVcKSTnOY6C6KHYSyWrLfhaC224RB84p0Lzk737aWkcCMMA7gfq6NRktrEEJQE3KpS8RoPTOWlYIiL0sqdS3LAWL6LeSinYQ09exaWnxZPsXpb9GnObBf8cy6JTbSBmN/WQRgM+18CcfoSHSXjfRNXoy4/a37XNHtfU0PnLMBaVpE2y8aP0hIPSUM24a/F+Ncf5/X/Vs1HVu88ayNnb79UEygQirAkdGJgK0wV3RMkUQH/GVNdVA4h15wBgQhw5a1qMUc30y2bTGQSh6s4hT0817wWtrFRzdnDF+/sruU11+4Wqa78W86ea2nTZiv5aih3bFw4h02AowyBUAT+u+kIzPWwKYWM1uB4+ro9TzR7Jhaq7Hc7SUx2sNzJTfdxsvSHV76oLkV4tDHBLPonOYDJNEBVMLNAVGYZ0n/5DteraIOdOqvKe5En1vDx9eF1dSBjUJVWHSa2BtNobGalmXGugB9X7+Vc9vlcvptarJ9lAIt8WF7Dla7HNXYR6GGMwufIYXoJ4r277nkcx2MSR4kPVD0mYiTpJ1SyzXs2YrrOc9+p8q05uIHJPc9EA+YoepUJwxaEEe56ujMLLsTuQU5sqiPMyBBL8q6uWQSizBoIY4t2dHKd/z94dtDYRRHEA9wNl1kmm68YQAjOg6WKXGRdHlwdpazB7sYjRSwstUTwIVsVDay8h0IN4FfXWY8GLh34AwePcVojmuCnuZkumSUMO0rXptv8cNrzzj+Gx+4YHZ6U6V0lbdWxZlGzp4eHEtEOlqAvHlKKoiGbdao+p3hOWIooA098cdV99FqoBpXNWQxQEek/0UQ0RrDKQ6ap/nabqQtqqC4+HqrEUeeXTZI8Zc3md9zyGTVo3FNEBMn5YuwSiOoJG+4xV66SkGimkd/IO95EC7L+crWzC6agunFfVuWOqWeArQziepJS6rmRG3H54wiIjgcZoZ722i+IyUvzOZNWFjKhGKG8rC6kkYO0eWbDVzq3ZyoE6H6rn0z+rsQx83yI86HKX94SJ42Na1v28IiMpAzv+GmR5V6FBXa1lXDWosPes0wqrTLJ6KFf2wwZzS+Fqa3ZUX6q+mhtVbQq3KAPTH4CuOtgYqGbjqAmCLT2K2t4hAEldfc66anj2frHfWemv3l3oN5vN9ZVmNAK+uLB/AVTnEtWnMwdS0R1I6qoNLhkLhCWMZCEuZp6wYmAnAtJz1+KtgHvL9xSUj4qZV43edGtPDju15s/bH2rdZmf9xdfVfqd2+K+qL1XPp95XYycIegHnnmDJrJvv0wg1mRBVEg2TtVpVt6TRw1gHUtE3vLKiemvOCgULXjFaNbCUOHR8zup8e7ZUX6qO4A1Vs0DQKnV5z5uLj2nPLEcmbDIhoCg1oyyJJSAIJUUUq25Hv0T1n4q+jZsB1dOz8262cpD6m73pqq8f+//g5F2Y+f+n2hR8aXC5vOcy4dEiUXZZMddRk1TPDQZGsG9o1QDdHzHoi6caoLU5W9mGtFR/mj4HsrERH9NvN+4niZ7TVBfSV025U4ykmiIIqEVsy6RClrHAE1Tn87ZfxQZ2RAlp6uX4e3lb99V/2Tuj17aNOI7vD/JldlTNqREjEmyZYapUt3LENXZd0+ghmGzyKLMnr86IXEJoO2ocp5Ri4oeswxAYrt+Kn9r0pW8jlD318femgra8LSs7nRzLXeyEpYpndf3i5M4/ne2XDz+++t2djuD8P6Ga4W/6qRq8qzA6Ewfy6NHeL7evU5G944+f7D3qa+/5mqf7S4e9pbX7ZOxjMpy8fhpTrg4N+GpJpWeSi5IlzU2pckJT59QYcEOghjkVBJnMrAvqwFUUsQy34vcs0FRj+odpi0hDX31hr0UeQy9u+KkH8I5C6Eyobu/sXN651dNDgjbZOE70cIfIid+9u+Sqs+fqZS9w1/3UzrgcyCDV7sOaREGSFYUX6EEwMWCGKR5h4rJACtzZOGCPai2y6STrZ0Rtb99iKAhUYxDKHMKom8ogAC4OWF7kOORCjPhsK7NSklq2Q/mKLuUyTahxQEZBdhOIXlzxUw/Q5M2Y0+eBLCzcml3oaen2J4+/cXR7qR9au+aq85mrlz0nsnaPXp81xuNABit7jlMWia6WLVVk2flwmFeY4QJgwDm63y61y8D1o8pUc5NA7VL9R383bjCoPkjlUvv1Sqda0VPp1X3TTNfTqxW9UrVbJbPaqCZ29caldKMMreXGX8VmN1dfzWXMer2kt5vw4oKfmliqZ2d3ZntyqKZyqD4MrVFrfd6jmgQcLd2jQzyqxze32DuDjthlXpYSqiqK8gwMhzqmRCCqCYbjo6U+1qDZUWS4VHu5OhQIqlGtsru6W7+odzrJS29K3eVURa/nOslC/bfGbrJ6sVRNtBrp7c6fRUmvbjcKVqu9myTl6uR26dVXi6eg+gPV41kHQgxIf7meoFpWWFGAGUU1BzCl0vr0kzg+DM+YGhiXKdaerw4FwoEwdw5Wlt+k9EwlY+ZNeytpZM0VkrDz2XrGLK2axIHoVss40KUIcSCtYqy7nMzUMy09Z7fyG75TjSZxzd6y31SHps/eV1sCPWyO0s3yEi9qkeFU12CjXOYAYduhuhH3yiCavP7Eq4EcMh2IXI2hmzP6N4JZA9EW3vo/2LtZyTT7MeSvr/4VcDCopjoN1aGxOZCsxoZZOlPOsrylsOqIVI3wonM+TBPB/HNS7jCgTzVwNfufuwZCwZhbxAxyC2KYCkjL0NbpAXZXUZPGFaJX6ED3XfdHP7WFJoXqaZ8dyPjvFmVbFnsrqxOSclXQosxQ4XibPrAJMJSLbamJPWcCuHji+mocy+5LG4Bp0WxiqAZESUbIJRoQwJGKHqbg94YBxZwIEGa4eQQ+CHndYFBNNdlUJ2QpywuyJFmyOseG5alRrnqdzrS0D0v9b13bPIlqjA8s5UDCmAOAyaH69FMclPIH3/mgOxiDH/qQq0Me1dbVqJKw5Ow+72RsjWdGCMepd95EmPQxfpt4Y2DGfCjVCNeyFbuJu3XD0mwE0eBRjTiBtryy7qevvrAFk0z1a19zdcgF4+yo/rZHtaTMsKLIyjwx1yKBGkZRDU9JRa+9jhl05Bo8PYlqjGoVPb8BsUq+01hnIizLDVdkRDw2avyID8Rjx/3AzGmovrlqpiTTyumbprSSShzM+VEDuXJjCyAAVPuQq7U+1Z+eOdWWQpdVy0KYVbQpjhklDqN5Q1qHYVTjuFcDGUE1ydLVYhOi2d1CPsGxfDgyXNF/GY/FRsSP/aJzp6AauqmSXuh8qZcKb9KF1UJj8T2l+nW/BvIxfcpNYKie9qi2xbBT1JMFVtViwBwnDIAZjkNHiQfjBKoBd3UzvQHdnL0vms1AOpCupVe3q4V0vlSyc4uv2vDeU006lOqFIQ7k+hGqzw9Q/b0TcaleGKB6elxU07WlDtWKGgHmdEJcvHj52bG5GuFKtd3EwNF3gbxbjN/pbBthNhqNCDOxc9WnvvjqQFB9sq+m8qi+RgP/IdUJkRUdqhN/c3e+v2ldZxzfH8Sh0GuCg67agtS6Nyrjxs5t2FnBmCU3HaWRIFqGZYxR78XK0mApFsZO5FhmS52KzlrrOo2C57mR5zjq1r5qpkmVEu3NeTUm0fEiUq6tnXN/8NPGBi7XrN8A53IPRkT66NFznuc55+EZRHVMNaTHf2jpV6N0KrBNwZ7Eq6FBlai1a1xmkNTsfdC13vwgAWC/UV2VTPV72FZXq5vkPhqnmqqbJkl10/sE6ve16qaQWt1UrKfaZADV5EAbi9nGF+2I6lQAUNBaetyS6owv4Mn1KAsDT6S+mqZfR10IqqJhv1M9PX1uulqJqmlGuxVSC0+vzX6PK6/xs6ESdbqB6lde6T3VtiGPx2UbaixpQu0xDjAmw2trnsNXizCZnc8B/anOndyuAdp7qwvltJhnn9vqs+OE0MXQtMzoOVxSvYqfeCSqUP658rKBZ8kHHys38TVWE9Vv95xqs2XU43HzNkTRtVDTNNWeEHLwHH8Y1QikA0HfnP62Ol3Y3S2kEWrIB+pCNaQATalfCWGtq0NB+eb9M2f+0KHO/HG0+nv7i+rXGrMwVW+iWmk9fVPzSLA7gh8XFL9kRZ0mm3HxO/KhGr+6pyf91lNtNrvZYpBpyBa6PVbUNteQrXggJlM91RAGBQ/Q3a9ObD3C2loGqCoAlj+7DfSgGiXyaxeh+bqVsdrhpjiPHIzVMWihzfl5++B1TPVHHesXVapR31FtMtXFq2ujdKs35QFTXbd6/FLd2LiCp4kWblTfVakm5JmMotoyWixaG6i2DzUb66MwB8zw4VSny25Rd1ud2X1KqH66la6FEVP9RfdUE23mY/FAOBufja0xIn6mIjFyyE18/YfSs41cN70GPvr/onrsKKov1FM9o1JN/uhmsZFqAzwQLJt6pm9rv5o+0iuhvYdTnRGLAb2pholHqgp1VOvlV8OgKPhHApH9Fy/XRL9/XMy/eBmLpl5+mv8w8OyHj3+yVL/aKdVXGm01obrZA3nNEKotPKb6KCGaON+t5SRUV1TfOkOKb+vigYBMuhI2WG6mmkg3qp3O4SCbmtgslS/SQU8plxCTU1KA3Q4Wy2Ip14UHcqaPPRCyWuyW6pkDqTYZSrWNLzsQdaTc9qOp/vEQqlEmNRvVw1ZD8MVnaQCUa12pbi3YXDN6Yn51/1O9cMJUky6SNo4/ym9W59uh2lRPRfLZGuicaqZCNUwvZzRbnd56pPjVid7YagSJKIgvKHwth+HwQEFF/J0uxCB9BHT3QJqoHhvTiWqTUVkYUtxks7CDqI0QdSdUZ1I7HdpqiOZu3WIO5rDw6KliqmFvbDUkarTZUGWdMqOTFdR+n7b1oSdUj1/DmsG46mCrMdaGrBbJUagursgi2qFg3Q3bXIssjOib6DC3eP3B1W/vH2KSCthabxUg7AnVGsWNt1Sywe2tY2i5l1hDgF/UC4D0ptpkMhGqQ0TtUT3TYrVoBNWeogc/WC9yS2YaUchqR/pTre2T6ozqb+5evfvtLXSQQC6dSKQB6hnVENmmmid473k8gNu/OoYKPTXWaVHdHgxzmXJOH6qxQdWygITqT2uzLqvNWRisUyQLQ6RlYRYI4oRqrGa/+q3e22ov63VZXBw1WC7zDMWwrAP1gmpaCnRqqx/cvXr16p2DoWMYeehZxhygYMDnSfqkcFgo+/CzWBajJXF2ZEKcOh7Vy72EGiVHtungNtr0JJek8JzktUseht8GEOpItWybQ9OyyNlkq6vyuIpHkjFXzyiThw08h7W6oGXMp2sy5m8ZSDX2qs2YahrZnZIdeSWO65xqZ6vqpuEhqjOqn9y9e/fS6MlUogKYXC8lI+Ll7E54378U3o9GlqIjS5Ho/tJ1dOJUA5TYH0/u7/my5dSIFBPDWf87s75n491R/WqVarywU6meUSqY8OPx9/e+x/rXd0RfK3VMyuwiKQEJKfUif/0z1rvysXtSg602GeBXe+XgHkcosCJ70O3iGaQ/1dCe31vr0FYz31x6cAedDNUoXU76xVTUJ6bK/rJQErIRoRz2CcL6ODpxW40Aol17e59kd+JMMppYj0zkP1nLR/MjcwjotFqsUI3LTSexxk6PLcq9Bu599yeir8jtsVAID2OTq6pvgt2Q1b/8DuuF/NFghWrtlJt/603124311cOcDUdB5N6JaDDotblZe3dUH9RrANAsG2TPg3aphsqTARR1MlSTjT6OXMaBaEWU1SoPruz5k/erIUTL/gCfDQymolxWFPjsuFRKBlLRXHd+NaGPvBCqNQ9E3d9yuoHqr09jEarJJNlIIFP9Ri3V9yTNAzHOVnuGObkXDINR41jOZnHxg11Q/ePBVEO4KYolb/tU922vAUD+T7vHUAKgHkpzNRgEGaDsNCKvOlJ9WbPVp4kOpXqSUP0GFo6OnDzVZY/FYnEGB0nrZqeZ7B9gKUp3qhFEdtf1n1qvAXcLYAFQ4Qeop5rfIJqqswEnSfV7fUE1y486vaTCAznlLYw21ol6kIWB0Myeb3+1mMn0EdWwAWq4WWgp7WSznmrx90QTyCXxLmtvcovEAhOqx2QdQjUZW1PNquiZDKDaQvqV0xhkxGEHG8tr1Z1qrQ7keptUQ7C8SwNoINUQWptta0a+p03QDjIwVgSP8KsfZZAsY6hORn0+VuSTgTkE9KV6fgFrZUZT6PHBthpLpZqkXmqpDlaoVmUA1c7hQYQI1QM8ptri9FZq9HSMgSAIk/vzbdeBwPQyDbugGrZtqzNJ3nM96HUWgywn4afLyXs2k5EJh0sqSkHeOXge5ks2l1tc8gLUV1QHUmG/uB73TSGghweiUf3fs/M4yXLlwvRNTefqYyBE1zDVOAoS0vIz9TEQzQMxkGqOd6gU21nigHhdSHnrGHYh/ajGtlrITrS1WtSKG6A8YVBkL5GfFXyRnb29vdn9Z3vr+77s+mzWH4uHfeL6eiySzZdc67P+qC8Wi233F9VCShBT4XDkIoI6Uy0f/yFHNmStyt2OcLz671hfXyOamcENjq6F8AZdNV49psWr7+F/J0A1X2GX40nbAV6O6yFMd7B9B5s7nOp0qphdU1bp1LGpVsgml7fuPxltm+pEIdEu1ZvCbDkc3dnzR/Ij2SxGOuJPzvqi0ktBzKcEX+pdjxhPxv1LsXifUZ3mLjK0y5GKzyEIu6L67WofWBPxQKpUqyUgiyFZi189f/j84VmZ5EWSoFm5gLVBkjJk625Izjbilw1PhWrDcotDnNYygCXnggzxtEy1S7IxNNKvugnA/IcjF9FmNlDu5PTIO9/i9OKtdqnefbrbrl89MOgqnsceCMc5vfjplLxOM+fmpHembC6s5AZATvPrvIeTeNAPfjXcniC6qL115Igt0JPqy01Uq92NQg+fY/2TWPDpEF5LTi7cwL7Kwmk8M03ukYIn/Lyi9Vtke0+1qeJXq3UfyC271d4hBWXaQZjWjWoA0qk8NiOOTf9+B6dHUqQU5O43sL3TI6nCVoFq6/TIQ4kYOK9Mu+ZgzWdvP22lrQwyXBA/dKC6ssWrlmpVJCFDpFEtg04ie5jqU4TqSUL1GxrVpIuoAatFUz3VNjWViAZYM6FaSywinSN7yMkO59CAyGejHnrQZWEOlNVx8H2Z6l/TzROO2j+gKfUTuZzyRenaSfUPrHg4lGoAobozAAKKXFAQC2hF1eoIAJQHV7qFEmmIDNBygSiNQKUNAiJSfyse26ea9F/T9BrxQOpXi6ttUm2IrTaZDqbaMew2W9xehrzrQR2IFJ5CEEmxUqmT0yPvq2V7rT2Q0Y1tJZCcWM4wjTZsjjqOXw0UEqp0qIzDpmA1oKihVlQDY5oXbSlpeYAGbA0F1lYrLf/w7qjWVosrVa2OER1G9WSV6isq1cZ7IDxHK1TTLGezcRxF9YJqlBFKARpi0QSdtnOLzP1Ll57Ao6ieWpwgxAF8Skgh1/QFD1zHoBpWOuTC+tvNcICWvXE/gxAaSfVmODplm7ObbY4Bi81hdQy4OV+AceQ6oNpkqqdaqTWt9DG/MKOuFpuoxpM3aqgmmwm+NMIDaabaqSVd0ADrZVXDrX8WBqYikVKOmC/YUV8Y2j53ZGQPACullPw8erqbq4fyDvFgjqYaonQxRyM6IwpTECEGoc1AxCNG56A8SQFEA6XsIiNMteyN+yZEyECqUWobBcO+eDaS9fvD2YlUxO/bjwXGcxB1R/WPFao14WtZnz+vXS1OyqvFK6cW8LrxmrxavKEe6VRPtckQqlHFg0ZWG0ky9oZqirLxpLky7KwvDGTaiVfThULCWpuuhugJ3k/z4DhUu8K+cCAvZJeErBCOlgLCRCob9m8nSmUhUhL9KV8+/jFKCeXw2e1WvQYMpzoZCAq+7FJAWI+KgdnoTlyMxIT8BNKBahnlL6tU45bPss3+6iHWZXKu3jk52Pd4Y2Fl5bEa2Vs9t4Hp/3wFyyCqiapUVyRj1SMPBGZSwgRjVHUTUL4IQFBxuR9cvXTnOFRvpqKp2PpIPLJ3Nju7/SwemErux8OB4M7Szjv+nbP78/l356UlT34t1ldUg4xYGhU9LM9KLOdlxXLQG5Qk30UEuvFAyHZwjeoK1hdUs/0/9s7+Kc0sy+P7/8SbDqtGQz27PVo6vcxmxtc2zp0BCWXUKEkK1CwCAtVAT9YGrUYgCRjAGc32YkLEoGlbzGSipl82cQu7p0OXU+6kqueZ+WHYKnf5ISmR2nOfFx4QY3cUSdrZL8Xz3OdFkx8+njr3nHPPbV++TxQlp2aSiomNjvqjcGMMLkKjo6OnbXfbr8H0MlF8qvPRPJzZotNc9y6FikQ1xmxukRJodd24Tn8fqjs60g16lVou33Qn5W0bV1s7VDqreki0ol9UJYJ66ZJJtSSy6BNu37k3gupPf8cs+UW7PbMzpb/7pxrOGaptvbzabRzV0X8luk9OzYMQE/H39Y1G4UY3+CCxvr6+BluvbRi6sieKXwdCFZJqyC3+9x51IKUHsNV09ezsdcD1+1CNuJ6onp61nDJk9N1UY9ppkZ9jHlMIApEuOJO7douRDMgD+GIYIoz29qsRXQwhGvERSRDio3pkiGFYIKp727cnGyZZaWx386k+xVBdw1F96kqor6amwXbSdo2sMeepLjnEeHVJrq0uCtUYQcb8IL2bqBudkF28QX8PqnEmt6jtnxJoDWjXqILWV++9N66ntCjGGqOcv1r+JsIHyMLk7PjMUz0KmDLqi/Etq4FgIpbqwSyqBwevhGp4qn95FKh+ae+m/a8xJ2rrJHmYzqFXypiHtWGeQASId4ULS3Xpmb1saGlxInva2h5QmDXYWRnSglAt2Oqbu1C9HGW0/FJbDQ2tgeoPEzlUHyW/GmFy3D/V1y8zAh8kj2pur2ZO43UDOhdLNc5KhCB6xNsTyKNaAA9xX+E+zulqk/8DGC1qX6YAE+Euhnp+QeSBCGTCRTwjRlgxBIdCUj2dRbWNacDe2z5ta7eBWKoHs/zqwbOE6r6G3l7WVh9VqulSnHIn9m+r7YtPCNRsr5t8qkE0GzVEMw8fPlxw7VKJ6gwHaIFqjEVnmLvvVnH/qxPMWdL2Dvd6FXK+DScx7xtlAKcq4XYlxniPeDXjzxeJ6p+BPLTJl1QkO6xmEqiGj9mddOsQLgjV7aAcqvlYSC859TbvjIEMXxlkYiBpQJ6JgRxZqmlncPsAfvUnn85enpi4/MX4rrYagLZzHSWNzUD1l1d3+UUIIZxtqxfNFrlCnnLL6iwdVrkxJZW3NlqgrQZ0R6g3mY3OyEzKktoM6hVyeFyVgEYyiZT8AzoltzSlNi1NYBj3iIF4ik+1un6xSRF0qKTBiN6a3tZL3TPjB6Ba6Ady9e7du7YcqlmaOarvXusmegT9QR4sLNy8CX5JA3QBeTDvD4VisUl4dPgxkL++JqoxpHQb9x8DoeyS2Xv3Zin6JbYajayxhmnpIejXM7tQjRHOoTolU6dVDT6ZO+1z+6wamdzdpFS7J32ObUeDLzKjiLgd7pWWFbfKuuGzptX1K/rTkecDjStbKo3sosY3jt8cqsEDQSlzHXRNUFrlqVSwSW42y+ss8oNSDRJiIA0bDayabCc5quEAnsgwZMvPnr0EC2Oe2eAu+CBxWADz1Wiff7Svb+vU4OARptppMh9ktvhducWAgQ1stY0RW63bdS1MDtU4ZdGnm9I+tUw1YxkwbOkaTZMdSrhS6Tc1vog6JUuuKK2nlcqgdAUeL9VbNU3Whpk667bMoTmtd8utS3tRjegiaepn/SAPwiJSWk0xiSTSek8CH7pgVJN4NR+xzmTMF9jT8NmzZOX54zt3VvOortk6dTZD9T8cOtUlRaYaOYPS5Pjh5hYxCoyEr4ILMjP+nSu8MBYtbviMPy0bEourxWKFyiVxVuDj5yTVlUOi6sjkEl0hqqyoLBe1VbwjEisc47Sz+lzF8XFafEICTWQroIeK643wqw0BIufOjq0HiIH8eHeqM9VNN6P3GS3HRon8zVeIHt0BqnvvnmSo7smhWpdNdQnpnPDXo0E1potANcJT/T0GY90SgrHkO6iGf6tcLJgrMVeXx6YxKs4hLEQ8MDzG3BBluzT/UVv7kg1vw/TrEod0wam+C8RyVN/n4tT+PqKaeIjoAbHV4Gjn2+r3MzGQ10114TsnHA+mZwpBNcb5VGcA1Hp7DHAKeOzhQB7/opyMOcJ89TT5MgUwmAhxJcmYEXeTeZMbc+sKaFRKVaO84mxedLH0q//8FegDPjqJM8YaF5ZqmBrmU10DGmXhnn8wNxcHn2T6+bELmq+//nol5g+9iMXWobNkprqpCHt4FZVqGle3lVUUYh9zhLDBifFOqoFGeyAQWAtjgx1p+9dG1uhc5IYWHhn3qANBQsm9UOjHIsy/ITzlBqXvhgNZCocDFF102f6Z6Few7LSVDU26aFzBmuzCUm3jtdNWs6cYubvcfrLd3xe3nWzvtYX6/O9/2P3L2+13BaoP168ufm7RqdxULFG4ELaa8hh280A84MxNhWl7j5b2aAM7/GpEG2EOuQfV/KIRTPFkUjusndD/hpLwHsjPctUfeH1Um8xSXceZaqZqT1XdUdUoKRjVNhtg+mgsI57qkJ8Re4ozVNt6geqQ7eT0SUL1h0D1+7ajTLVVV/8uz9K+6qtLh4ZcZMQqj+q1Lm9Xl7c2jNfCiEb5s0VKd9W1F9Wli43Hh8SVCrd6qJI6foaqTJ6pUJgrKkxyUQWNy8rLKxXit8Xl58rFlqSx4gw+MYRIdVNOnV6/4TVS7ZOZGzRqqV6pkUXS2+kZqlBUDwyDrgG0nKLNy4yauVhInKWa3Bpr56gGN5yh+vbRphqLXjVjzmyVxS0yRfTQ7L3OzntfXOerHXKpxsjQ4+0CrX7l5OtA8Ct2uTGpIGx9Wq/RaE67fTKp0hppUjZZT6ebIpeWApG0Qxl0Q2w7saJ3uM1SpdqRX4n6i9dqq+Vyqc8slfnkK+4Vh0x1lS4Q1dw+5gLVy5wzwucWQ6wHQpbrDrfbpudr4jZIptviNTFoFPKj27b2HzrVJAbyVh7VvMqoV7LVKKsuLfDtBFmPO/HkBpMZz/dAwl1Ec09fdHB/Ea/Yuwk55SrzdrqlSbPdond/ZGoxb65sQWS6ReO4qJcHNRF3JJK2RjSpDY1SqVFbJ2ccS28C1Yin+oRL3KowptK6cgU0M6mrajtADASUTfUgiKOac5753CIjKPkgVJPWCt3XhofH4vMbz55thOLz8Zs39c8exEMpPrL3A6Z69/7VNIZNHV8lYw7sutoorujI9e2fL7MCrPEuuUWXdZVY6qdPnw5wlEpejWra2WptaZJLN5OJ5Gb90qLGWJ2CVLnZnLCY5K6yRKoulVq5KEtUSZMp8xI8akyArf7Fa6caYiBEH2T6lgj1XAWjGtok5NrqXj63aCPiPBCycczw4FlS2DR/5858n7/Pb+tV3Xns70vyVL91qFQDeEWn2mlOOgYQG1bYjWrqs/PXCXSciwHf651PznMWZ/Yyr4l7DK47/eqrX4a6QC+ePtUB48i+NqX1UAjDmLX15EMjvJcHgo+njJmLRRjmabHuXM41ehM8EI5IdqFAprgQYR5tzKqQVNvYIF/7wjWimxzVpC6VrF8cjnFU1/jbgepVf40p44GUHGr/6uLnFkn3SOlVhF9qq69fvnUewlIiZnwD3nNBZ5uJWRZdGII4Yy3YIYHqpbEImS2uzllIfYZhCsZdWicCoMnLpZ4RjxPBg92p3l9VMqZKFz25CjvpomuojUjCBdF3CrHT61J4ti+/WqD6RfRYlNGxdciLE7V3DxKdimVF9gDt5dDo3OPHc6P+USiD8gHVo0nBry45WnUgNGWS6YC4ysoToiqUTzVZLjtLf/YFRSi88QUQNtTJNTvAZChoFhldNMqlGtMu+1pPV1fPGhlTWm9XD1yNBJzkPWQfAeK19tzqpoOrlPppvuEsuu795hboBoF3r9Uyr0x1SUnubNE/yis2fZPRAtuK/UqMJGM4qslh/cKLlpbllgXfXGhhuuX5g9WMX/1DrW7aY92iQjkwTttXklK5btfukW3XKfgSSBHDKZqdgMkhM2x7QnyPWyDYo272zMOru8WrkSEctjMuh6G2i8jbDyjToDUvuVp7iV+NGSD4BDlGO1cK4MwhdyUgwvRnTzqz9eQLuvjq/DnZ6/8zOmXsqBMhisJihMXMmSYHsSRllIBJMdL7oVqI7I0Jlah+vg6k+yzRqfg8Ufz5hQsXLi0TQfAvCn5Ku79mwRb917k7JmG2eLSoxtipkOooLDHpIj4XdaLquGinJKXwlVQIN4Y+++IG+wSWd936Da/zbVdbhZfE4sxwfHxcwrwe6GLU3+/1esbhvpahegoegirID5SXMqQaLEuCh8SsaUgx067Fxgzy9eP0YiszrDLykGOFi83azP48V/deC9U/+cl7792gTUspmWozqLYOIJPbHFRLZcmgOqizyFbMKrM1snQAqqF26VR3FtV8Fobt+DscGiUK+ckBgI+2XLjQkkX1/J2UMFs8WvFqjFMytwumNqZNaVI+/r16ohLymAFNdf5G0AR0FuPfQEgiovIEsesM1QjeGmGo1pbu6ImKaMVG06ZUnbCa5Ra5FYZ11km50myRwimlTEA2VNlolppNTZsKaUoqhUdJpRmlkhblplJH+J597yfZer1U60xqmcMhddclZZsqjVqVdDukjo6gI6jSr+iDS/ueLV5k/OrdqH62ymie8UDmRznn+n4MXlmPXpqejvkX2pejc6tHl2pUobDWSTAk6aol736v7pGCL0jNTghQ37qc1cjabjBQeVM+RE/1A8fEt2Y9kECP1wuLFtGO2SLClpVjAz59iz64sbV12tegScPKAXlDi8+hj2gmfRuT6SZpMnJRKXXLth0yuU/vuGjeTlgv6iMtkzMVQ+NvANWCB1JmlbdaEqZkyigybQ9sJlMdCksyWW2VJ5NyhUl65mBU5/jVPNWrdxjNs9VNMRIIgbz6NbDd8yF/bH15eSu0tRyKT9e9EVTTdIGp5nzlsv1kzIn7Ck61ADVcdLYxDnBY2wPghskrGGOUWcaFtEC1t8dj5xPY4ameqfDOeDWinUmrT6WXu1V6U8Q9oJTpk26NPj2pUlubVKoGvdunVFnqgxozvJZ2y5MyuTSyPblUHtEF3T65Un3ujaD63i2iG7n7JZw5UCVqyW5UP1vl9YD3qzmq52KxUCh2kdxthrUFto352ByE9aLR+8f8x6L+mC0rt8g2fIdK1MOmOp/iisrC+tWC9kM1fZ2dK2ag/sM3E+dLaeTU1hKL7K3VOpn37B7tlHYkAIxjQzjg8Ri4BjAEeqfdmZ+FwaUSkaRCDN8hDB49eNt0WWVqWy4qp8pckhPiSjF1QkSJK+GJuLwCDiKRKT0wDr9BLCkXiSuoPL+6ky660FDb0NBQm2SHAcEFolqI7D2+w2s1FGMU56ievEI0xsRASGkIZND9sAXkpa319XhLczyuz9hqQJr7pUWgurwsB2u6vuMNoppG59lg9cTErQl29A1pZe2EOSArL2CNaM8UEO7tqtUaaIyA53E2usH1NUIwzKE6N0CNhVNp1gOc10KBYlI63B1043yO7n32GqjeY9XAYVENLnYfyM+Z70tniYZJFmYd2vG1T7540QJNFeKjW4Oh2P3l56umjAdCqC7WqoHGXIppsfggVMPC5EJRjUHEVOeo8y+ff/Pk/LiHgdr7+HF/V9cajdZqOci9U4A1RpQI80E6nkJgG2GBargAlWICPyplDwjDmZzyxbVr58cI02AO8hkrvgBijLKv2ZsFpBpSLblUc7PG5vdvE3WfIrmYMSa3SEpDhmE7UbDZG/OXbsdD0fWtZybBry7hqC5Cxlwkor/br6Zeg61G2L6GZzN5RQbvbz4n+kv1lJeBGuT1TlFhgDpjukUE66x25ARIp51GBk8A5cSreR6QEKKGAyInAZGcQDUBWsCpXpelRky/SSoY1ewuogu7UA1dqkE/GhsmesR4ICuRr1eg1+/YdPt03B+PL68/mh67oMuaLRaJarp0Z06MUJ1H2/fLmhWYaowpAw0OiKAnf/mc1UgPRzWoqzas7e/nqV4NjdXRTo8HABWiIjBfXINQSK0HZdYtUpXjtHicJnJWvo3KXbRIUi2mKKek7BwWV7vsVSIszvVEKlzIKckyigO/zlIzfQSpFno3rd55zIp4IIz8t2FbL2jNBLYaNEZmi1uE/TkIkyyTBsDPQ9HlsemxaLL4WRh6Hyoe1RjRWTUgf/r4T3/kqP498MtRDXgD4xlb/YenT8eGAt4eO0siwp98GnBOwaxyirgnSII4qhcjeqNVpzBWJlpNVpnSrbZo3raqE5aGJZO7zmJVBgdc9simqKO1vDEFjdg73i2Dp0GpvhHRHfVVdSRnI8+meuyIUs3t4XVpndel0HyMySbe/pBRN+dXgxoePHv2bG60Zn49+nx9+eKLsWlNPL5++J0ToLqp5FCp/scCzxYFqp/86eOP730uUM1j3QVTxC5BULf38Jx9ZI3iAuWG3/3+twHioPTUer1aJEKcdVKsNDk0GpnKodo2lwXTAyql5gOTbzO5sbSYlhtNGre6cXFDptrwBbfcaWNqw+EOOpQamUajq1qZ1MygvzGqhZ3pbnOh6/lhSCwOdw+PMfvisjEQYrDHmpvHYqP+5/fXo+uP4v75C5svtdX/T/WTj0FANacegWNvz0iXoLmnT2ckGI3zHkgAqDYQWx0e6YEACUc1xiYIVjelzaom6cWB4KWUSn9C2bE1kMTBxg2fJbUlN62ordvWtEZuaXFD9lljUVkdUpJhhNvbTbrUpvEoUp1fs5e3N+5tNs3Y5+9m2tucao4SrS+TA8ktwu3urQvPL4Yuwc2WrY2NumJQDfoBUc361U/+AO5HNtV//MorUD3i6fIKl6tfUTQTAyEmyGgED+QTZNBOeRByIj6yR9FUeXmq9Z3qlNF60XdOkahWGHHViURjNRxTdcbqZGtH3ThWJCrqO04oTnS4sKL1eKK1uqrx7SqXU1HXUd5Rf+ZvluoajupToMEry2zVNZNbJL1BfDC3XI9+GauJR9c/WmjWbCiKsMLrrUO21W8VlGrILBKq//wYTDXRtxzV307/mzdjqgOG2n5yVRuaI9daGqFPPnXSGKAee2ik4ZKL7NE4v2avsnWI3qfkX2bpET4yVBPlU81rmZ8tsg71IEv1BRLDZvaq8/WSLWOiIf/W/XVoW+aLKHJtdUnJjw+d6tJC6jCovt5J4nl/BlMN4qeLf7z770EumEcCG1xKZvVCiLAdRpj+7W85qpuNdHjEQ9HoJTto7J9FhKvOZWnoqFKt+wg0M9Y9zKr70Vx8DhR6sHDt0TXQo3WiprnQXGgDWt08k300/dGl5fWNufT6o49m1EolT/X/sXe+P20kZxzvH7Rje1kQlrUhwlIgWx2+g4rATURi+QTYCrqWRLTUQQbVICSTlS3L6whTLK9E1dq+N06wUhGh/kBcEKeU1rp72SgvLs+rkJMV99WB1fmxsMa3Oh+O3TbuffHMPDN+ZgXSR48eZmc0BtV2exuoFohqqHb2cjmdtNCeKTZEDbMyDXPQ/Gq8lmp7K6gGDIdbPKs2sP765cuXXz/OZh8U8n6aeOQJxChzjWPNQjXCgIMlkEgDg4ugkkVA4iNpGFp5agBjNKiZkqHDqBYEg+pxF1GvqJxJVHRFJhI1kUumoqMK6egidVdkRaQ/LtYxqeY7QQbavbIHrc+rW0c1RjxYm1Qzrl/9MZYlWsOFUrRUSCBE/FLmu0UVMEKqEyR+kI9SvVEA7XB6812pNq+B5lXxM1NF6Ky82qR6FFogvrIntOvG5/eJagSRRQlg8zldqq5VlmoVABJBc1+ef4PoWlTlU0U2H0sIIJWPJui5yCfvQLU6ggBkAAWwQhpfGYCeGvjNmT4OdCbVb1pINVkybDfVvwCu/+k1EPThUwkAHzzfqqX6VfaMaqRGOdXULESj0VIGkHGHl7GtCYXyJYQAtMD0QdNUY9jNeZdnZkhhZ0y88Z/lFi7sRP34EDpuvbrlsdqgWhh4/f9MNQZFQwDRO0vTNRlI7MljRvUaddAVzBwBEdEaA5cMmChVUjP+POUb9Ahza45qvJSL71e92x9UqumTFzfSKze+TS/+SPWlNPWfoPpXjfT3y2uhxVTzEvQXtOI507Es1wOt5l4YmQZphh/OZACD9sgr0+z62lw0mM+oBdmgHUlNUQ3yyVQuuX+6nBtOl33bt8Lxidyv9TqqUYdSXe27fkF9r1nzr+sD18mHlDcDTMQyxEa/qyuCnec2bctAhCtXSE1LF7Xoh6rLHKCiI6bRWKetfguzuKpjrGYwiA9iTNlsLMZD9RFwqo3X4n9SgVkoGkVk3l9/K0IiFCVnFz0bqaA/xZYoQirgJmM1KeDbA9/EHu1h9rgLpwYCgDuU6lOKy5nsdjvp2Rkg1CA6/5IaVjYf4NPaSnVjCcIPdBPaSfVRbJGvhCRWs+d6SrG+twZUOqMaJ57tJDCzkKoiBPqHe5AIfkmWRDwefyb1yV9CgELkQFhJVpqK1RgwJ9vYcoWp0EjR1DqCTqXa3grVQtNWqu12jiSreHMJkpuJ1YgCak01hvVAUcci38yMjLHVIw2DXAxEZP3onOrYeajGWBVZA4g+m0t99mxHBQnUP//j9/6NOU8Qwc6OiuTgxsbcRkE3qaacIowlZN5zyiyJWghhcwhkCjVmovMk6i/JY1AjCXXo7qb3jOouoUmq7fZ3ykCwNdXFz55HQAIeFTWN5cvMW5z+5TrA2r1YDdVHOiM/lC8AI0yVsUEV2vnqk692QEbgWwmVSnlPXgVEpN6Zm/N4ojoyqCatwS0ryOpmcMnAGpknv0xdvBu3AP9l/Ui1ifAlqDYCO1OzVO8mvcfjZWRBNQJ3oCjfDhxGAGDz4OCQccMZXy8GDjVYO4vWjynUnLhEIcSDZyqEsRmrn4UePpJZJ+P3eEqkKUAiT6C+GTynGvdQC/rHjYibmDybr/G2e3QQDGHbHmtdtqvUc3yUuNTdjRvsIKqFurz6e4BoQkJXG9ZAmv2VhFb8t7gUnj1dGMMWVHMoA1tbBOfNJwcRNwvVhaAMWNSesGF99egepfqff1g98+crexhjWULmc4j56HOFmplrHkI1idP+FBT8N4ltUI1AXa6ERyqVXHVi6X4lfH/3pLx8fyo8ulTZX4BQePykTLai+ryjy+Up7yTeflopO8Ij+9XfVUa9J/H0IgC+cIPGzSDCnUK1vY7qxrQIQoMktd1UX7GiWmjIMrfsDcL66afnVAuCFdUn4eT83REWqy11yPBd3+RJuIQzKRnDYXF6ayvAGF4PvDpa/TIEPPPlayDISKwlTjX7AisRaiNCNcmlGdUIMsE70YQiGVS7c/PJ+PbP4/Hh4dkbE/vxcHJhqToTf/Hp9l3fvndldiae3H4xvz2zPVz1+vZnZnLD3nh1Nh1PD8/H0/enkFRPNXQO1YI11YbRPNVt27PXJ1ioq65ryn6BcHvNHyc0oNoqVmNbsnzsXtah1wlWwhGagWBmI41VpLN+u/h8el3DnPpp9xchoFKogyyDJpM2FAJDDx+yRua9TDSYglS+kMHApfDohGFqOR4/na/Ozm6nvfOLuc/Ly7eWZwm8H9y668uFV8gN92SFOpycfTF/6/hkpTwzk5wgN+emk9VqemHhuOL1rtVlIO8t1s76DKSe6ktJaKxvvmk11TRYCw1knTvVcdyAast9IBgQbURH/6jjuxpy2ByO7h5aO2y2/mM3ra7ahnp6HONkz34/GS4GAoGRzX7m8tEIqdzuoeNxMjVVIGNM5bKNmEODpLLZbJNEji/yu5NjpOMYc9jcxM02hBEWXUvlj3rGnE6Xrdup+PZEbBsTB5XuSdck4H7NOaT0ulxXd8uViJse2+0Zw27NNeS+7XJ3O50IOxw68gVNpawyEKkXGkhyQQOJYkMPpaGH/L3z66muSTfftJxqulzd8jPmr9/2kbc8hpjBugO0ZuUHytK3Nq9mGYi1ZNExJFqq96ppK7zitsPFLIklHTUONofhR2ouWWYP6hdN6bppu12i6FJalJB2iMCKajNWD1xGDCJOmNlywIy27+3rVmcg/ybu/F3bZuIw3n8ikDeGQI3HKm/aS0mpTSEplAZa5LaUmgOpQpBMgiJNNhL2gaSlL1mEpTHgoYvH4NWTyL+RIUOHIjW5REOhqnn9Qz5kxXf+gaAP9t35vudHgz766qwD393QcoFe/Fxbg2VXYZ7TUhS1H6yWycA+8wA5Ub3UlJWtv5mridgr5osBSCNzvYivIMg9V7MOltSv19dCqpl/Bwe474C1+wlcYc+LytwgIEY5iWNuMAAqCxdnACloqoDhmxGeRAF7BMccwab6zYoQjDkKpvxmCEtCOVN9Q/yDCcZBoklrVNyWf4yVVCxlhzlLU922jUjw/fRPrFNbiNXQDmM3C68ld00k8a1Mf1PAI5faSQb1tt0YGgl8tQNT/ALEx6osSmMjCmqrrqLbBuajFs2gKUboY9ShO5xaB4oZ1vAxdbVKxlUxjk50DtIsBDNSI76qUy/VZ4qJRZmXeQbIzCd7TsJCmQCRtMuEknTgNhijFczhi2TOm3yp3rgKFunu5fpammrQVARV1XwAp4ABcLRveZEiGpI7e4Zg31Gsbtcws/ggxxy7vJ9llDvtGSYWPQ930kbtbsOyHCwoqnmcU7ZumuafLzo1G/fr/MUHCvPJE6EI2xfffOquLRBpyIgvDRfOhRZC7mhf0CLl8tyFNI/He4JjyO8aHcitSTUNgJv5gbuAquukvtrIlert38H1At3eY7U8VNIiZVZlCtU0NRVFr3qOT/gCsBKHCEu7ttPgZqlGPc8S3iJHczNUqz1N0WXiQmgSRQ03dgRHmulHErZUbH5GzrmbD9Wnpjk4k6hme7HYE3kqS5CDdojt0dXHQUqu7isHyOsJLdqsiWvHPMaKKrSoufoo5muWcSa0iMPaVGdPfXk+1QSlDGsB+fxre1lei4WtrUKpWHw4UbFYKhWm2ppqM6zX64M6S45KZKgZGaS6HzBUT8VLUw2R+F9fVtIno3lhyp6/G9t6hupKXLUbFTky3eTGT/I9RppbIy4ENrsxMpJtPd0P+7ws1rp6O0RSB+YzA0Fa5Mc+Lf5UwHjP+sr6/qEtxZ+sFnWXvH5UVaJwBwNIu+c5UiyG/AHmaOn+sCdFQsifROvOQDCNB0OdK6fO1GD4CjcJkYTRUordUmEUKf3z4H/2zqC1cSMKwDkV+hN62kPp7qGudtKsSFjSCs+hYsGDlDG2hEHuEKhPG5vo5LJmu6D42EvYZm+GHnTJudc9Lf4ruakgqkMhTuh7etLIiqFuDzbU3S+jN28UJeNEnx4jHMePosS33DTqz1qjUTyehJG6yJLEcZxT6bqDge93Op0mgh1iQ7PzBlh2gWVZEADPyxtmBPaMGYwywDJNQxiMeYRpPvPXWL3mzusY4995VP3b0nXAMau7tkxPxzUcPDTxYGk58VXd9dVf2tpHcUwT/Ku7xaeoNlk9MBljpqeBkaEdgASBIYaSQiX4qCDjoIF+qGLHB1xXSuk4SZJkqQrCyTgejVrjvkpsz0+Cx3uPgqzjyTQKZ+3S6rS0WroDv7KaIs2BVI8AW45X7yoMoBoxohyZZt3qDXgCz6JD6PWe76MLO8vBflV6l7VtZkkmNzw3Wd1oVFYzg5l1q1kpNEWti4ZkIqupdOqMLMzN9geDQSk1WB0VVs/CutV5rW7HdaslWY1O6yqNm70E583casviCCSQWQKi4FwIC2QWhoAgIGDBFhARE4KBHbIFq18Hr5xf306Vu//iffRhR6XuTZX6wThmhy+O9g+YfXiETysxeOooODv7Mt6G1Zrf0WqQmjGQgIECGITgkFiQAKiMQGcQ8BZSbTS3bTKNtIO0KNW51j5Y7bpkdbJsNdZqq251vVaT1rQCyV3uUEdT0dWTT188KsGbNj4sAHTOG0ebYeMQoSerDcGwI5upM7dQq29eX1+pw7e/BfKNmnbf7arVV+n14j68mlzfh8nL6eVlEEzP7+EazuKZf7Rxq2n1oV814NP5NQ1AGBQ5pxR8EByBPeSMroqoNUe7SqvLvgMfGNHqYgHikNXVCsRplrU68VetBkqrUWf6tkVP1xPNyyFH7NxlGnFN+QNw7MlqADNMTBR6S1aj1pfvevNXxjScxjtbq+c/dqZ3Q3V+H15cZvOxuj4/V3O4htWfo+cbvj+gu8VGzWoDT7CBYATDyQcIaAtiQ0722HZutZaLEm01ZnoFMoBavWp1PO5Hju35GdVq35NodSsG3SdhQCsQQLrSLawultXFNARNBpGsJiAXXCNWYHkAyGqPecz8vmZ14+lG3tznmZ996L1RmRws0t20mt58d6EW89lpyhbCfeO8l7J54d/chDE6vW2rBZ5jAXie0KAg2AmLQwYb7rJ1rSY4r24UAcoLOj4Ua1cCZHVtXe0UK5DHwYUjExVArW7F7dmkH0aRSoEMSBCnQuKG5IOHnMp/iAtg1MiT+l+ibmIN8j+gl7efFz893C3TLcxOb7VVWU2nWAIQ1kL2aLUKvTDSuEYCZECaKqWioD8Zg7yt2SRKpUzSl5/t7X3y5PYkbq3QbrWRFrZqJ0Wk2kXdXXVQW++ufzXmGjyeDoR2sWR14+v/oE8fWX3doiIDtEvVCKBxlVS0a9roQ7Rz5GQlGfZar7v45PaLT/eQz5+c3Xa7w9EQ6Q4xoRz6B+gdK9QPx6wcdotPPzh4eaDIamJHrP5o9ZA80tpQrumuCDRap1sd1BQigUm3e/sX+3WMgjAMBWA4iVhbDMXkBIUSTG1BcJW6BNxzgB6hQq/SO3g1B1chhUy6dIjEpUOCId/04K3/8F6/T8AsYXyqe38681sMQay6692q64mzDBiyknGtlR/D/VN10/xz1VF7NKqWg3JIK87KFbBCOK/oQmdBFxvDqzpWPVK7J6XWVIQx2wj7usrJ4UfQKdpi4kshQ6s6XiCyIM5ggjFE68130tCrIsC7OlYNnduhFMze7NYxCgIxEIXh8MLGHUJwm9xi4IG9lmLrRTy2F/ACZk1wCxvXYoMh/8wRvuJZeD9N6asV21PdVccKkLwvrkfsqzerJhtZIH1Xk0n1LdaxBNkZY10OJQe3fS2q7qrdRmHBm7PGSm4QwShDuhWFckvhlwtJ9UWV1P9W3RfI/KTqa4Gs0PCJ6vuKWcjb7pOdM8ZBGIahqCW7ctjNLTKxw4i65iIcmwPQC2CnYahgICC1IfjZ1XdbdXuKVKUqAuJgoBIUNAYc1sWsVp1jB1a71VHTrJYVxEGtnambwXIRIZ/lYhtZp9xvVokvEbX6998W3erFf/YEPyFUFjKHAqOGHQxUAGJDE+amGvIDT/3g1d0Fkm6+Y97bjrlQpRHZu0oAiIlnyOYMNEFnVrvV0ayGP0cu09jTN3u+Vo9T2tJqDg0gqT+r3eqwFQRN0IHVzjEqbazVLVp9p2WMUQCGQSh6Mv/48TjdnD1vIGPmmjqkLSk00D7FJx9Uty8wsxih6O4l+nl+iXqH/0GtANx1AfK28QEtclga0ymAJ+TCCGb5zt4ZpDYMA1G0h+gxHnz4e2UZuu39rxCycC7QNohZiKBYihyHVG9jGTQzGB6DRxsBOHMsrJ5WkwyQUtz/ReX2kLxOKa+L3WBwMoBvADaxztg2uXy6GZJrpshR1o4tZUAjkaOCM6xFfyQjkYNBGStgNTmDXVg9re4Dic44D0aStwK9MjhTnRan1YDfG+D/WT2tDrFxxjDKoe3BdUDFezze0OppdSminLFwJ0h+LmrbETq/u9Xzv3qI1Uj0WI30XKtrX8i2SOIRbls9rT46Y/AQwHshP45E38fsj8LqaXVgPAC8I7D1fzoQKwZPFgCVHIOsnlar3STKhqfONivh+zDKaui2WraR7huJ2NJq8nn1tPrgGpguHSTachj3oRdo85iwemfOv1ZPq08XU8ErJhRKsSCsDl8YrFSEYPPQHArxbD8kJGKRGH/sQxO2l9Ov1dPq5cs2LbgAuK8obkZiXW/VVj1aux/Gc0Wswcbny7VXz169HBqt7vMENQxXT7S6VkPeFaDNav+wby43DAIxEE0RqSAl5I57SCM5p+iRLTENRIwULLQfZSOU076DDePdAa984YCt4Jzq64OMleE7ZuYiby2ThCpaewJDLgPP/LflSW24TlZpy7nWk4+HBwnoX5g51USAPY5VPxCxXymEhNqKLKfU31KoTUmmMhpGW9NNId+s0kGG1Nr9Sey2pNQsgV8DIEBqqudUj2HLcv+Z0b0TYwE2SFQKSvNr8fYiieJoOrzZo5vchGEgCsBZcQc2CPUas3zn6A16gJ6XJX3STIAdm0aWPFF4ELlV+qOmHwLbQ/LsZNz5ff75ObV26PWpW7ndy/RlcVCXKVdlOFoFWBvIvAlgi4FsLQUFLHZIDGQ5r1xy8tKK7MDd1pRvxeddt3LbyxtnnXnjhFtRPlNlHRFSy4mGTOJC/owMGavTwrijioDe/4imZHjcexA9uV6TuaG5ma7BxibOZP22W7lNf6A7SW9DHjHDzOoMizPL5Bx+jYCCffQ+ZRx4JY3Kaq3TD/2mW7v9lV4xB5E1Wnwa4gtg/IXWA2jaGIifhQenBLUP86777g95Z5WOcRiGQQAAfgIEQ9wvpWOX8AIydPfmP3jsO211aYwQlWplqXJCFhaYBS+AxCkRIgAsDg6ISIGJXRr4sYpIzll+VI+J6vY18unqHbNSrGqmoqqVXeTeeD6x7L2390Va7/srhm8X0r8fypnqZ6gjf673ZLtlPsLY2o1/jgBANFoJ8fZh7vx1W7ehMN7X6HTfQNAgIkQXQVy0hLDjwJAXR0EAeQpaXE8GboAOyeQH6Jgtj+fBQIYCXXq+j4ekCN8UHf2Zfw4Pldgifz6iufA6qf57e17s2n71Kcftfj/cyol4H/eHl/3z6+Obno8eTkhfLnc4+n+zFuVjqnuRGl3b9lmttJjEZEt74RokSaZoDjPh4Gw/a+PiGuLB2sM0BW9tTCMy9JtmQAf6DNQ0yBAtumwjrsneSA3fePg4vD/s/6ee/7MX43a3tqJmmsxgvlJjeBT8BFk75Q74p3BnUtW1niFvyqHBgeIegwdnVluoF7EONrP2QOtejTR5KunhWfobaLmC9ORxHGmrB9reftz9ficHMj+8fi76od8sHp+/XSfV/2zfFpu2BdX7F5yNLlS/v+y3pBpYLxZPT08l1R2FOsO9lkKU4O0VaZqlSHXBdJgoNisIDXrYaSrOs6gaADWUcDB1RVIUCuHcguWGAsx1DbSNtXLZYAU7e9M0dnz7/rJ/fcNB2dBZXijRVheNU/DDzXa+NF4jQjzYH/FejcUb1PlrJTYFi2bNTzpBgea6Cb2AWpKZcENI+LhBWosLVM9gnpfRKsUJQdlHdWJLMZOw3PXgeo05Fa53u+VuuXpaPMWzmkn1HlTj+PHD+/71LFS3m8Xb9lqpfn47ZarvI9X710ec+s9QLVCLADWo7mZUr6GC6igN1JozzxcaSinVVJpVEh2pZgcZoZoKljAyKSrARKm2GqcbFoqU0CfNsXt/2D6e86nvapT6gX5JKH4sfq7TJ46bP00l1WiJyG38CDSU6mGAAxJ3SXUlroq0D3PxajOnOtdfUN3rBGjJiUKOVHdMmEgpOKXQZidaIlIr1JHqd1D98XF4Uap3oPq6Y/X5guqzUq0H+y9BdYCYOTzEkPG6kOu7GCpEKJ3rteFa71F75IpFVbV1i7LyaIBgSZ4GzIBAJTaMgThAgCIYSrBRoBvtrYmUqqmDDd4+/9q+ZqpXi6+l/V9TvX1+tdZYy3dVNfG7lD0p17OVR+rDnVVVY3DPdDM0+zAMFSupHQYJHu+ZZTB7jKZzTmyI4DqZgEQ15LqAMZkOQhMVpzKHqg2olkfzBdWkg3iA6k6pvvpY/aBU385jNaedUJNqYp2+213/hZybLeha71znqOBxrqowDR4FMAakHjh7qI6qaCvBydIKKrEh2lCJjsl8sbMJlV3KHepXVjIrwruigxUNWNCMb9rqOcmcn/BYsJFpfQ8rJlx8N9gR8jnVWgX52gvZ89v0pNrpADlfccBQqJx3WXn9HJo6A2x29CeqUxMkS0pUb0qqIVK9j1TfYl19Xl091YsZ1X+UVEOZamLdKdW0utn3v2cVqXa9y1R713X0+UEcCWgHYWpQeldLBuOiOgZrGlVk+ZLqbJW/ycpwmeK4hY+8Ibb2S9zRZq1JH8AbtFgh0cVCa9rBAgPyrN4IvFZyU3zTxJU/QY0KqaBa6eUlWHZ442vU9LOoqDAkiM21kA07uMUMUItXUqA6Mw6qURBz5bjDC4IZqQbWIWor1cK0rkAWAvWcaqxASPX6uqnGHki5rr6kehGpzixDXJAxAe62RRnkoPyLRTF2ugApFMMODKd2ojowjVcK2Ep1oeyola70c9GwSAYjKhEk3jcia29QU2pZeNVpc2GMlE2Dzt/Yp5c1UUQ1U60eQ6pzv8k3kRG3QnB+KFVq6WCwpKosfdxRPUdOx9rl8aendRp6YM83rejt5sI3d8dYfUH1Q1xXcwWy6qbh2vdAhmF15s6eUI1HzMuDUp2C9VKpFiWoiXcbnmFxxDQiOCfuOdUUyM9Y+4Jqhp6S6hC2fGXmVJufUp3NgBLzZaxmbhhYFTdK4bO2+DdWlxSsaNCXQ7K16d1UOfCKbU1COq1+9BZoVFWmumRZ7zbDTCPynVYgXMipCqpdpJogY5WN/DOqRQXUpHoWrGXudQUCOrgHolT3Q3v1VCNW77F3o1Tvt6T6E0gzVO+wZc09ECW6j2GbERtKz7jc4rZHT4w1ghQ7IQP95TYInrLlfvUwQkLyWIcNXZTNSBlJxquFHpjHMUkoZDfN8XicJI1HY0bLC+G0ofco2YgHydqjVCb/l7EUr6E391lePomO4ZLZn1sULPkhJ2rM8l4N3N4Ing3u2GMshiTnRWnzY6QPTSaIZe/iYPu2z5rbGqFRBPNPvIRoLqs7blgT6sudvTt5kt9/38t+dTf0V7yz9012adbDsDydX2UFcri/vT0cEKplDyQxDS11Y+9iywOtAYrtuB/NClADVQd5X2xKTUONdaLUX1NNGZF4hbMpChwbBdtrXcJiFEtcV6tPrzgelWmjNopLseNoS4diCtXFHx+tPYoyr2iNKpOqfAeGSldAoHqowTM9Unl4wgj5WvywKBhJLWZAMuRFYaUt/gQzZ0fHHfPV6lSxmgWlQLbsV6elNagOSxDQIZKY93hataD6vP31X+bIILViGAaigW666yFC+YtexZuPwbeIfCrf8YMJ1ClPUQZTKHSTgSjSaDKWnOWWeF97eT73lv6NnH9t7Q79IDmXr9KELMiDQqrCEcnOJi+sPUAcM2K/B6B+/GDiy3jhihNiChelUwRBM1x1Be9gJ9v6yFxt3IygRZpj8YYrLGiIZ9D8O/aht/JYl9ti3Xqxdi6X9ZrywIgBb4LIYCcMn4wNgVz0yeE1Egyo1RYJQmwZnMQ3QYA2YXCFn3NEWV23B17gGFzYAyrUvhIxwzEtWljWyAI0gC4eOh1oLRTSVFPdgCFiR8bxWZv1/vhY7oy3z6/t1XtRmB2PUQRfB1ut0PFmHVSwgmpS1ciFPx7OMVJxM4uoZ0shpUUmXdgBLMVWQVcwy2dYHIGSyH0IS8eTC1s5TxgwMcZP04FNU0VlwElHJV7kvX+zUwYpDINQEO0mtHTTQ0hoxbP9S+cSmdm1Eh9isy8JdFZfHzOOLlThnz6y0mstEWE12bK9LRk6rFSy7MaY2rzfIQoxQUgX0IJxItFkAimCX4MdAKw8AGpw356wviINAt4Q09Cfew0+jrJC2Mlmwu++afT9wEAOwyBMvZWQJYAQ0VVjEGo4opSFf/romtIzLx+t5xO1/5V/0jvP9+vlRLqlOb+ppYKciGEYuIAQoqqMSqR8ACG0+4Uc+f9HkkvlVS89se6MrY04wR6gs+rW8XjGTtJl3n4/wrrcAPS6QV/0fG6fy99h/s3IypH7c/zfmNeP95fDLvH4NqbjUlprtbYLPOKrIgY8r2qxqtriukIVyVJYY/T3CrWEyWHgHLOKMtayi0srVLUUGEOOEIAgJMZswoYI8gq+Hwt74diU8495bA2t3Pe6e0wEM6J4hcIsrHzfDd1d0m2JXoX3omzA6QCSVCGhTisjkrYyN99FMbHlDKyor0eZTsPDYY94eh5O45REcpZkEJHkUeLbIrIJEM8KyhgJiJC7VTb/RBc+meWspIrtTADWlsFKFqAbJlscC9hDtDFsFvWU0wF2TIZxuDMiFXKz7rLBURBPd5g5R6uY9wIIYq5g0EdAMWXw3jxB2ssm6C8qrqSb2lmOFCdBnt0mw3g33O/sy/5ip95xAABBIArKx1isBfc/rRJjS0+yE3hHWNNdIJJXmT56WAopEOFeJnVYbDdFhSj+RxaCwy4dowAMwzAUDd/FhCzO/U/bJlBnKnT0oCehE6j6sY05trn6gwhj0ltZHSAiePJNJAj2HFeryfyFczieRFhJnqyVxM0uHeRQEMIgAJ2UYGDR+1/3k9/xDpPog1rda7u7PQoJ33tmpTt9kMsrScM1JwulDB0dWXw+SfSLGVgJUTZJe3qqi3vtv1Ga9yDxfJLAAUgqZDBI/HOyC0QasgqSSgA4fuzPQQrAMAhE0YCBP/c/cSONjYtuC5LmKczgztFaRV0WJBl4OgvHISeQ5N0WWknoQWIzBfqrA0f0RIFWUk9YZdyZsx2+3a1wj3t97mqXDokAAEAggOGe/okxJOCQW4btIgAA0meQ+jD19nA3xlE/wwAAAABJRU5ErkJggg==;" vertex="1" parent="1">
          <mxGeometry x="1500" y="113.19999999999997" width="285" height="136.8" as="geometry" />
        </mxCell>
        <mxCell id="2Tt9mmZAJ2oOAFi1h-LQ-115" value="&lt;b&gt;&lt;font style=&quot;font-size: 18px;&quot;&gt;Tableau Dashboard&lt;/font&gt;&lt;/b&gt;" style="text;html=1;align=center;verticalAlign=middle;resizable=0;points=[];autosize=1;strokeColor=none;fillColor=none;fontSize=14;fontFamily=Courier New;" vertex="1" parent="1">
          <mxGeometry x="1537.5" y="260" width="210" height="40" as="geometry" />
        </mxCell>
      </root>
    </mxGraphModel>
  </diagram>
</mxfile>
